<svg xmlns="http://www.w3.org/2000/svg" xmlns:xlink="http://www.w3.org/1999/xlink" width="719.666" height="509.652" viewBox="0 0 719.666 509.652"><defs><style>.a{opacity:0.802;}.b,.g{fill:#3d59fa;}.b,.e,.j,.v{opacity:0.1;}.c{fill:url(#a);}.d,.v{fill:#fff;}.f{fill:#cf6f80;}.h{fill:#3f3d56;}.i{fill:#512e4e;}.k{fill:#535461;}.l{fill:#9d9cb5;}.m{fill:none;stroke:#535461;stroke-miterlimit:10;stroke-width:2px;}.n{fill:url(#b);}.o{fill:#1d2366;}.p{fill:#ffb0b1;}.q{fill:#c7daf5;}.r{opacity:0.03;}.s{fill:#dce7ff;}.t{fill:#591d4b;}.u{fill:#be8b87;}.w{fill:#efc8c4;}.x{fill:#727a9c;}</style><linearGradient id="a" x1="0.5" y1="1" x2="0.5" gradientUnits="objectBoundingBox"><stop offset="0" stop-color="gray" stop-opacity="0.251"/><stop offset="0.54" stop-color="gray" stop-opacity="0.122"/><stop offset="1" stop-color="gray" stop-opacity="0.102"/></linearGradient><linearGradient id="b" x1="0.5" y1="1" x2="0.5" y2="0" xlink:href="#a"/></defs><g transform="translate(0.485)"><g class="a" transform="translate(-0.48 0.006)"><ellipse class="b" cx="63.444" cy="10.19" rx="63.444" ry="10.19" transform="translate(175.927 488.98)"/><ellipse class="b" cx="79.168" cy="10.19" rx="79.168" ry="10.19" transform="translate(505.075 489.266)"/><path class="b" d="M60.354,396.83h66.081V486.9H65.192c-.163.924-.319,1.856-.488,2.787h61.732v72.638c-.111-.033-.208-.072-.313-.111-1.745-.69-3.477-1.419-5.209-2.2l-1.107-.5q-2.6-1.231-5.209-2.6c-.606-.319-1.211-.651-1.81-.99a108.359,108.359,0,0,1-25.966-20.289c-.221-.215-.43-.443-.651-.651-1.055-1.146-2.09-2.3-3.093-3.49l-1.107-1.3c-1.185-1.452-2.331-2.943-3.444-4.454-.163-.221-.319-.443-.488-.651a96.936,96.936,0,0,1-11.2-20.249c-.091-.215-.169-.449-.254-.651q-1.341-3.451-2.377-6.967c-.3-.983-.586-1.953-.833-2.976-.091-.3-.169-.593-.241-.885C59.436,478.915,59,463.92,59,449.029V443.82c0-6.023.072-12.085.176-18.14,0-1.569.065-3.132.1-4.707q.137-6,.391-11.993c.039-1.113.091-2.22.15-3.327a18.844,18.844,0,0,1,.1-1.914C60.068,401.42,60.2,399.122,60.354,396.83Z" transform="translate(-51.176 -176.628)"/><path class="b" d="M143.147,218.262H106.9a274.77,274.77,0,0,1,19.279-26.539c5.385-6.615,11.069-13.061,16.968-19.273Z" transform="translate(-67.887 -98.343)"/><path class="b" d="M127.273,247.09V341.8H61.4c0-.273.046-.553.065-.827.059-.749.117-1.5.182-2.24.072-.872.15-1.751.234-2.6s.176-1.895.273-2.839.189-1.9.3-2.845.208-1.888.326-2.826.221-1.888.345-2.826c.1-.781.2-1.556.306-2.337.15-1.1.306-2.207.475-3.3a3.044,3.044,0,0,1,.072-.488,225.217,225.217,0,0,1,4.851-23.779A175.85,175.85,0,0,1,77,270.8a180.847,180.847,0,0,1,12.293-23.674Z" transform="translate(-52.013 -124.384)"/><path class="b" d="M186.8,278.826V368.9H327.941V278.826Zm0,92.854v77.352c.807.169,1.608.332,2.4.469,1.081.208,2.155.4,3.256.56.208.033.423.065.651.085.43.072.872.13,1.3.189,1.087.15,2.168.273,3.256.371.514.052,1.035.1,1.556.137l1.257.1h0c.684.052,1.361.091,2.031.111.417,0,.833.039,1.263.052h4.642c.56,0,1.12,0,1.673-.052h.039a8.776,8.776,0,0,0,1.165-.052,2.746,2.746,0,0,0,.326,0,6.724,6.724,0,0,0,.964-.046h.228l2.181-.169c.716-.065,1.439-.15,2.168-.228l1.485-.176a129.86,129.86,0,0,0,17.873-3.8c13.165-3.672,26.044-8.81,39.2-12.573,17.013-4.851,35.811-7.234,52.251-1.3V371.68ZM327.941,178.549V58.634a181.444,181.444,0,0,0-45.858,5.378c-35.739,8.979-67.806,28.453-95.283,53.326v61.2h7.084v2.78H186.8v94.723H327.941V181.329H222.969v-2.78Zm181.288-40.505a58.462,58.462,0,0,1-25.582-7.436c-15.2-8.269-27.346-21.037-40.916-31.813C414.538,76.351,379.573,62.808,343.7,59.448v119.1H545.189l.5-.527Zm18.355-3.256,19.462,21.356V129.188c-6.518.807-12.228,2.728-19.436,5.573ZM547.045,468.24V371.68H505.576c-.111-.41-.221-.827-.352-1.244.124.417.228.833.345,1.244H343.73v69.831c1.537,1.139,3.054,2.337,4.558,3.555h0c1.621,1.3,3.223,2.676,4.831,4.024l1.621,1.341c.775.651,1.556,1.3,2.344,1.914q2.344,1.9,4.734,3.75c.788.651,1.6,1.237,2.4,1.849a326.358,326.358,0,0,0,40.128,26.246q4.707,2.6,9.5,5.085c2.129,1.087,4.271,2.168,6.42,3.216q4.844,2.363,9.767,4.558h0a358.657,358.657,0,0,0,95.062,27.691q10.932,1.615,21.949,2.539V468.233h.651ZM343.73,181.329v94.717H547.071V181.329Zm0,97.5V368.9H547.071V278.826ZM562.854,129.071v30.068l24.84-27.255q-12.345-1.992-24.84-2.845Zm0,149.787V368.9H760.628V278.826ZM759.9,475.389l.7-103.708H562.854V528.317a354.661,354.661,0,0,0,38.22-.456h.221q9.115-.573,18.146-1.667h.137a334.176,334.176,0,0,0,93.239-24.879m85.946-207.658c-.742-1.751-1.517-3.49-2.3-5.209-1.471-3.256-3.028-6.42-4.629-9.584H776.4V368.9h39.014c-.02-25.5-6.472-51.542-16.629-75.275ZM776.4,371.713v89.2A127.783,127.783,0,0,0,803.36,424.55C811.4,407.96,815.08,390,815.379,371.7Zm0-119.1v23.44h13.986a253.924,253.924,0,0,0-13.966-23.472ZM642.269,146.742c-1.029-.391-2.057-.788-3.093-1.172a282.338,282.338,0,0,0-33.408-10.04l-38.012,41.716h0l-.729.775.488.534H702.8a289.359,289.359,0,0,0-60.514-31.846Zm64.5,34.619H565.627l-2.774,2.539v92.145h197.8V231.412a281.8,281.8,0,0,0-53.866-50.083Z" transform="translate(-95.764 -58.63)"/><path class="b" d="M127.273,320.46V367.4H61.4c0-.273.046-.553.065-.827.059-.749.117-1.5.182-2.24.072-.872.15-1.751.234-2.6s.176-1.895.273-2.839.189-1.9.3-2.845.208-1.888.326-2.826.221-1.888.345-2.826c.1-.781.2-1.556.306-2.337.15-1.1.306-2.207.475-3.3a3.044,3.044,0,0,1,.072-.488,225.217,225.217,0,0,1,4.851-23.779Z" transform="translate(-52.013 -149.983)"/><path class="b" d="M60.354,396.83h66.081V486.9H65.192c-.163.924-.319,1.856-.488,2.787h61.732v72.638c-.111-.033-.208-.072-.313-.111-1.745-.69-3.477-1.419-5.209-2.2l-1.107-.5q-2.6-1.231-5.209-2.6c-.606-.319-1.211-.651-1.81-.99a108.359,108.359,0,0,1-25.966-20.289c-.221-.215-.43-.443-.651-.651-1.055-1.146-2.09-2.3-3.093-3.49l-1.107-1.3c-1.185-1.452-2.331-2.943-3.444-4.454-.163-.221-.319-.443-.488-.651a96.936,96.936,0,0,1-11.2-20.249c-.091-.215-.169-.449-.254-.651q-1.341-3.451-2.377-6.967c-.3-.983-.586-1.953-.833-2.976-.091-.3-.169-.593-.241-.885C59.436,478.915,59,463.92,59,449.029V443.82c0-6.023.072-12.085.176-18.14,0-1.569.065-3.132.1-4.707q.137-6,.391-11.993c.039-1.113.091-2.22.15-3.327a18.844,18.844,0,0,1,.1-1.914C60.068,401.42,60.2,399.122,60.354,396.83Z" transform="translate(-51.176 -176.628)"/><path class="b" d="M189.246,194.557v81.154H139.56V194.557h7.084V167.08h29.078v27.477Z" transform="translate(-48.524 -58.295)"/><rect class="b" width="49.68" height="90.068" transform="translate(91.043 220.196)"/><path class="b" d="M186.8,539.44h49.686v74.877a129.651,129.651,0,0,1-17.873,3.8l-1.485.182c-.729.085-1.452.156-2.168.228s-1.458.124-2.181.169h-.228c-.313,0-.651.039-.957.046h-.332c-.391,0-.781.039-1.172.052h0c-.553.033-1.107.039-1.673.046h-4.61l-1.257-.046c-.651,0-1.354-.072-2.031-.117h0l-1.25-.091-1.556-.143c-1.094-.1-2.181-.221-3.256-.371l-1.3-.182-.651-.091c-1.087-.169-2.162-.352-3.256-.56-.8-.137-1.6-.306-2.4-.469Z" transform="translate(-95.764 -226.383)"/><rect class="b" width="40.968" height="90.732" transform="translate(410.339 126.677)"/><path class="b" d="M583.927,338.19v90.074H380.58V389.413H488.892v22.919h54.061V338.19Z" transform="translate(-132.614 -117.994)"/><path class="b" d="M631.812,635.346h-.651v59.088q-11-.931-21.942-2.533a358.671,358.671,0,0,1-95.1-27.75q-13.107-5.9-25.68-12.879A327.684,327.684,0,0,1,448.3,625.026q-4.792-3.672-9.461-7.514c-2.155-1.778-4.3-3.6-6.466-5.372-1.5-1.218-3.021-2.416-4.558-3.562V538.774H589.653c-.111-.417-.221-.833-.339-1.244.124.41.241.827.352,1.244h41.5v96.533C631.382,635.313,631.6,635.333,631.812,635.346Z" transform="translate(-179.854 -225.717)"/><path class="b" d="M889.915,225.125h-26.7v-8.3h11.967V192.12q1.556.566,3.1,1.165V216.83h11.629Z" transform="translate(-331.762 -105.206)"/><path class="b" d="M919.74,341.8H788.685l.046.033-.059-.033H764.36V251.068h6.889v67.064H802.73V278.415h26.005V247.09h26.7v31.351h26.005v39.718h38.3Z" transform="translate(-297.27 -124.384)"/><path class="b" d="M764.36,396.82v90.074H919.74V396.82Zm197.559,196.1.215-71.3H919.74v-31.9H764.36V646.311a354.677,354.677,0,0,0,38.22-.456h.221q9.115-.573,18.146-1.667h.137a334.175,334.175,0,0,0,93.239-24.879" transform="translate(-297.27 -176.624)"/><path class="b" d="M1095.1,539.44h36.247c-.319,18.29-3.991,36.254-12.026,52.844a127.827,127.827,0,0,1-26.956,36.364v-57.3h2.734Z" transform="translate(-411.711 -226.383)"/><path class="b" d="M1132.837,494.825H1096.57V419.55h19.624C1126.352,443.283,1132.8,469.327,1132.837,494.825Z" transform="translate(-413.176 -184.554)"/><rect class="b" width="21.949" height="28.447" transform="translate(429.365 151.901)"/><rect class="b" width="21.949" height="6.55" transform="translate(429.365 210.865)"/><rect class="b" width="21.949" height="19.11" transform="translate(429.365 220.196)"/><rect class="b" width="21.949" height="28.447" transform="translate(429.365 269.83)"/><rect class="b" width="21.949" height="28.447" transform="translate(429.365 328.794)"/><path class="b" d="M728.362,676a3.608,3.608,0,0,1,.651.039h-.651v6.609H706.42V654.17h21.942Z" transform="translate(-277.055 -266.412)"/><path class="b" d="M728.362,744.71v21.975q-11-.931-21.942-2.533V744.71Z" transform="translate(-277.055 -298)"/><rect class="b" width="94.066" height="2.09" transform="translate(247.966 308.18)"/><rect class="b" width="94.066" height="8.009" transform="translate(247.966 313.05)"/><rect class="b" width="94.066" height="12.879" transform="translate(247.966 347.312)"/><path class="b" d="M524.318,652.15v12.879H450.743q-4.792-3.659-9.467-7.514c-2.155-1.778-4.291-3.6-6.465-5.365Z" transform="translate(-182.293 -265.707)"/><path class="b" d="M554.361,712.23V725.1h-7.768Q533.5,719.19,520.92,712.21Z" transform="translate(-212.336 -286.661)"/><rect class="b" width="18.518" height="18.518" transform="translate(505.316 228.927)"/><rect class="b" width="18.518" height="18.518" transform="translate(104.377 142.649)"/><rect class="b" width="18.518" height="18.518" transform="translate(104.377 185.661)"/><rect class="b" width="18.518" height="18.518" transform="translate(104.377 228.673)"/><rect class="b" width="18.518" height="18.518" transform="translate(104.377 271.679)"/><rect class="b" width="18.518" height="18.518" transform="translate(104.377 314.691)"/><rect class="b" width="18.518" height="18.518" transform="translate(104.377 357.703)"/><rect class="b" width="18.518" height="18.518" transform="translate(576.007 228.927)"/><rect class="b" width="18.518" height="18.518" transform="translate(505.316 274.602)"/><rect class="b" width="18.518" height="18.518" transform="translate(576.007 274.602)"/><rect class="b" width="18.518" height="18.518" transform="translate(505.316 320.271)"/><rect class="b" width="18.518" height="18.518" transform="translate(576.007 320.271)"/><rect class="b" width="18.518" height="18.518" transform="translate(505.316 365.946)"/><rect class="b" width="18.518" height="18.518" transform="translate(576.007 365.946)"/><rect class="b" width="18.518" height="18.518" transform="translate(505.316 411.622)"/><rect class="b" width="18.518" height="18.518" transform="translate(576.007 411.622)"/><path class="b" d="M775.83,714.271V702.33h18.511v10.242Z" transform="translate(-270.514 -245.04)"/><path class="b" d="M65.24,357v10.594h63.372V357Zm6.316,9.929h-5.17v-9.278h5.209Zm6.309,0H72.656v-9.278h5.209Zm6.3,0H78.952v-9.278h5.209Zm6.309,0h-5.2v-9.278h5.209Zm6.3,0H91.564v-9.278h5.209Zm6.309,0H97.874v-9.278h5.209Zm6.309,0h-5.209v-9.278h5.209Zm6.3,0h-5.209v-9.278h5.209Zm6.3,0h-5.209v-9.278H122Zm6.3,0h-5.209v-9.278H128.3Z" transform="translate(-53.353 -162.731)"/><path class="b" d="M65.24,404.34v10.594h63.372V404.34Zm6.316,9.923h-5.17v-9.252h5.209Zm6.309,0H72.656v-9.252h5.209Zm6.3,0H78.952v-9.252h5.209Zm6.309,0h-5.2v-9.252h5.209Zm6.3,0H91.564v-9.252h5.209Zm6.309,0H97.874v-9.252h5.209Zm6.309,0h-5.209v-9.252h5.209Zm6.3,0h-5.209v-9.252h5.209Zm6.3,0h-5.209v-9.252H122Zm6.3,0h-5.209v-9.252H128.3Z" transform="translate(-53.353 -179.248)"/><path class="b" d="M65.24,451.7v10.613h63.372V451.7Zm6.316,9.923h-5.17v-9.259h5.209Zm6.309,0H72.656v-9.259h5.209Zm6.3,0H78.952v-9.259h5.209Zm6.309,0h-5.2v-9.259h5.209Zm6.3,0H91.564v-9.259h5.209Zm6.309,0H97.874v-9.259h5.209Zm6.309,0h-5.209v-9.259h5.209Zm6.3,0h-5.209v-9.259h5.209Zm6.3,0h-5.209v-9.259H122Zm6.3,0h-5.209v-9.259H128.3Z" transform="translate(-53.353 -195.771)"/><path class="b" d="M65.24,499.06v10.581h63.372V499.06Zm6.316,9.923h-5.17v-9.265h5.209Zm6.309,0H72.656v-9.265h5.209Zm6.3,0H78.952v-9.265h5.209Zm6.309,0h-5.2v-9.265h5.209Zm6.3,0H91.564v-9.265h5.209Zm6.309,0H97.874v-9.265h5.209Zm6.309,0h-5.209v-9.265h5.209Zm6.3,0h-5.209v-9.265h5.209Zm6.3,0h-5.209v-9.265H122Zm6.3,0h-5.209v-9.265H128.3Z" transform="translate(-53.353 -212.295)"/><path class="b" d="M65.66,546.41c.254,1,.54,1.992.84,2.976v-2.311h5.209v9.259H68.922c.085.215.169.449.254.651h59.583V546.41Zm12.371,9.923H72.822v-9.259h5.209Zm6.3,0H79.118v-9.259h5.209Zm6.309,0H85.415v-9.259h5.209Zm6.3,0H91.73v-9.259h5.209Zm6.309,0H98.04v-9.259h5.209Zm6.309,0h-5.209v-9.259h5.209Zm6.3,0h-5.209v-9.259h5.209Zm6.3,0h-5.209v-9.259h5.209Zm6.3,0h-5.209v-9.259h5.209Z" transform="translate(-53.499 -228.815)"/><path class="b" d="M88.26,593.77c.163.208.319.443.488.651h3.444v4.447c.371.443.736.886,1.113,1.3V594.4h5.209v9.291h-2.11c.208.215.41.443.651.651h39.607V593.77Zm16.545,9.916H99.6v-9.252H104.8Zm6.309,0h-5.209v-9.252h5.209Zm6.309,0h-5.209v-9.252h5.209Zm6.3,0h-5.209v-9.252h5.209Zm6.3,0H124.82v-9.252h5.209Zm6.3,0h-5.209v-9.252h5.209Z" transform="translate(-61.384 -245.338)"/><path class="b" d="M141.65,641.12c.593.339,1.2.651,1.81.99v-.326h5.209v2.93l1.107.514v-3.444h5.209v5.632a1.633,1.633,0,0,0,.313.117V641.12Z" transform="translate(-80.011 -261.859)"/><path class="b" d="M590.989,340.3ZM550.881,532.464Zm-41.847-97.777c.124.417.228.833.345,1.244h0C509.275,435.521,509.164,435.1,509.034,434.687Zm81.955-94.411ZM197.72,242.78v2.78H226.8v-2.78ZM550.881,532.464Zm-41.847-97.777c.124.417.228.833.345,1.244h0C509.275,435.521,509.164,435.1,509.034,434.687Zm81.955-94.411ZM550.881,532.445Zm-41.847-97.757c.124.417.228.833.345,1.244h0C509.275,435.521,509.164,435.1,509.034,434.687Z" transform="translate(-99.574 -122.881)"/><path class="c" d="M434.449,361.494s-2.565-.358-2.565-4.1-1.836-10.717-1.836-10.717h0c0-.033-1.589-12.156-3.783-14.083s-5.014-13.243-5.014-13.243-.482-6.14-1.465-7.462-2.311-4.558-4.271-9.174-10.131-7.813-10.131-7.813-14.774-8.569-18.96-11.362h0a6.421,6.421,0,0,1-1.061-.8c-.729-.957-3.907-.977-3.907-.977a64.029,64.029,0,0,1-.755-6.687,5.084,5.084,0,0,0-.033-.7,22.528,22.528,0,0,0,9.9-12.254c.078-.247.143-.508.215-.755a2.116,2.116,0,0,0,1.27-1.146,23.894,23.894,0,0,1,.853-2.6,9.81,9.81,0,0,1,2.409-2.116c2.07-1.758,2.6-4.72,2.507-7.416-.065-2.181-.417-4.382-.28-6.55l.039-.547c.039-.326.085-.651.143-.964.319-1.615,1.016-3.138,1.406-4.74a6.1,6.1,0,0,0-.482-4.786c-1.335-2.025-4.115-2.429-6.557-2.637-2.767-.234-5.241.072-7.012-2.227a25,25,0,0,0-2.787-3.366c-.365-.339-3.907-2.5-3.907-2.643a15.828,15.828,0,0,0-11.036-.846c-1.836.534-3.568,1.406-5.43,1.843-4.017.951-8.64-.078-12.052,2.22-1.9,1.3-3.041,3.373-4.108,5.391q-1.3,2.494-2.644,4.981a32.267,32.267,0,0,0-3.509,8.523,13.526,13.526,0,0,0-.234,1.992h0v1.061a3.5,3.5,0,0,0,.039.651c.039.2.033.267.052.4s.052.443.091.651.117.573.2.859c.033.124.078.241.117.358.065.221.143.436.228.651.046.111.091.228.143.339a6.091,6.091,0,0,0,.332.651c.052.091.091.176.143.26a8.646,8.646,0,0,0,.6.872c1.393,1.738,3.444,2.845,4.961,4.473v.729a22.287,22.287,0,0,0,10.144,18.2c0,.247.033.5.046.749a37.264,37.264,0,0,1-.072,5.8,2.735,2.735,0,0,0-2.162-.964,3.12,3.12,0,0,0-.833.072l-.059-.046h0v.059c-1.432.352-3.2,1.843-4.883,6.081,0,0-5.131,5.782-9.037,5.541s-13.8,6.016-13.8,6.016-9.649,6.264-11.72,12.645a89.1,89.1,0,0,1-4.154,10.6l-11.928,24.579h0l-2.2,19.5s1.218,8.673.977,9.995S301.6,387.76,301.6,387.76s17.339,30.465,24.423,32.028l.508-.358a4.153,4.153,0,0,0,.957.358l1.458-1.029a15.9,15.9,0,0,1-.111,3.438c-.977,3.008.365,22.639,2.07,26.487s1.1,54.3,1.1,54.3l-.241,4.454a1.889,1.889,0,0,0,.059.391l-.059,1.055.176.091a12.54,12.54,0,0,1-.176,4.239,47.136,47.136,0,0,0-.859,7.475s-4.877,31.175-2.565,37.439,4.278,13.126,4.278,13.126,2.442,7.813.117,9.148-8.933,3.575-7.572,6.83c1.237,3.008,5.932,11.069,6.628,12.247l-.059.619-.957,10.372a13.022,13.022,0,0,0,1.1,3.959,6.821,6.821,0,0,0,6.96,4.349c.651-.046,1.406-.124,2.136-.221a92.3,92.3,0,0,0,15.822-4.115,6.454,6.454,0,0,1-1.237-1.022h0a3.574,3.574,0,0,1-1.087-2.6c.1-1.888-3.431-10.886-4.31-13.1-.137-.319-.208-.5-.208-.5s8.061-8.425,6.719-15.894c0,0-8.92-5.209-5.984-8.067s8.184-11.069,8.184-11.069.241-30.7,0-35.284a37.961,37.961,0,0,1,.449-9.526c.1-.475.215-.938.339-1.393a84.99,84.99,0,0,0,12.267.931c1.5,0,3.021,0,4.558-.091q0,.651.059,1.406c.339,7.6.97,20.94,1.485,25.895.729,7.1,4.76,26.246,4.76,26.246s-7.69,4.935,1.341,17.1c0,0,0,4.408-.6,5.046h0a55.206,55.206,0,0,0-1.543,6.355c-.378,2.292-.534,4.61.078,5.814,1.465,2.878,10.255,2.643,10.255,2.643h0l.215-.039a12.6,12.6,0,0,1,9.3,2.806c3.34,2.683,16.017,1.5,22.88.651,2.689-.339,4.486-.651,4.486-.651a2.6,2.6,0,0,0,.091-.938h0c-.072-1.686-1.393-5.385-10.353-8.686,0,0-8.425-5.665-8.308-10.6h-1.152a9.185,9.185,0,0,1,1.165,0s-3.3-12.046-1.953-13.022-2.689-14.324-2.689-14.324-2.311-22.4-2.435-23.967a13.676,13.676,0,0,1,.606-3.972l-.606-12.28s-.117-4.082,0-5.411a27.012,27.012,0,0,0-.28-3.444c-.059-.456-.117-.931-.182-1.4,3.158-.8,5.209-1.543,5.209-1.543l-.365-42.745c2.683-5.209,3.177-16.636,3.164-24.742,0-5.209-.234-9.063-.234-9.063l3.666-5.984s.846-7.162-.495-8.731a1.5,1.5,0,0,1,.163-2.051,6.811,6.811,0,0,1,.8-.547s-.039-.059-.085-.143a6.465,6.465,0,0,1,.814-.579s-1.3-2.018-.137-2.871c1.094.742,2.071,1.3,2.813,1.758-.052.475-.1.749-.1.749l.313-.651,1.152.651s5.743-11.44,5.619-13.126,3.907-8.79,3.907-8.79.488-3.731,2.689-5.294,1.706-12.885,1.706-12.885.612-5.9,2.077-8.308S434.449,361.494,434.449,361.494Zm-109.881-5.02.111,2.728-1.12-1.8Z" transform="translate(-133.73 -114.291)"/><path class="d" d="M478.678,504.554l-1.406,5.99s-11.264-5.749-13.3-13.055,3.4-10.079,3.4-10.079l10.5,4.447Z" transform="translate(-192.31 -208.23)"/><path class="e" d="M478.678,504.554l-1.406,5.99s-11.264-5.749-13.3-13.055,3.4-10.079,3.4-10.079l10.5,4.447Z" transform="translate(-192.31 -208.23)"/><path class="d" d="M376.054,814.14s-10.418,3.828-17.58,4.31c-3.8.254-5.8-2.077-6.83-4.323a13.088,13.088,0,0,1-1.074-3.939l.931-10.32.495-5.5,15.216-3.952,2.155,6.589.2.5c.866,2.2,4.336,11.154,4.232,13.022a3.555,3.555,0,0,0,1.068,2.572,6.191,6.191,0,0,0,1.185,1.035Z" transform="translate(-152.902 -313.948)"/><path class="d" d="M473.941,808.526a2.6,2.6,0,0,1-.091.931s-22.281,3.718-26.839,0a12.072,12.072,0,0,0-9.376-2.748s-8.621.234-10.06-2.6c-.6-1.191-.443-3.5-.072-5.782A55.108,55.108,0,0,1,429.014,792l.345-.273,2.051-1.647,24.013-.71h.182c-.117,4.909,8.152,10.541,8.152,10.541C472.541,803.167,473.837,806.846,473.941,808.526Z" transform="translate(-179.629 -313.582)"/><path class="e" d="M473.943,813.323a2.657,2.657,0,0,1-.1.931s-22.274,3.718-26.832,0a12.071,12.071,0,0,0-9.369-2.748s-8.627.234-10.06-2.6c-.6-1.2-.449-3.5-.078-5.782,3.321.332,8.562,1.159,10.62,3.132,3.112,3,8.386,6,11.622,6.231C452.28,812.646,467.432,813.128,473.943,813.323Z" transform="translate(-179.631 -318.379)"/><path class="e" d="M376.633,826.313s-10.418,3.828-17.58,4.31c-3.8.254-5.8-2.077-6.824-4.33,2.65.892,6.329,1.83,8.263.97,2.292-1.016,10.418-1.673,14.975-1.953a6.413,6.413,0,0,0,1.165,1Z" transform="translate(-153.481 -326.121)"/><path class="f" d="M404.168,332.066c-8.595-3.34-19.65-14.376-16.89-19.533a11.536,11.536,0,0,0,1.074-4.141,37.809,37.809,0,0,0,.078-5.86A80.259,80.259,0,0,0,387.279,293s26.832.605,25.27,4.558a14.776,14.776,0,0,0-.4,5.424c.124,2.253.449,4.8.788,6.954.469,2.956.938,5.209.938,5.209s-1.641,2.3-2.6,2.422S416.5,336.826,404.168,332.066Z" transform="translate(-165.559 -140.402)"/><path class="e" d="M370.038,797.51l-.2.221c-8.022-9.7-17.723,2.39-17.723,2.39l-.143-.254.495-5.5,15.216-3.952,2.155,6.589Z" transform="translate(-153.391 -313.948)"/><path class="e" d="M456.6,790.04s-5.86-.124-8.985,2.637-18.231.6-17.58,0a2.142,2.142,0,0,0,.339-.99l2.051-1.647,24.013-.71C456.533,789.766,456.6,790.04,456.6,790.04Z" transform="translate(-180.621 -313.568)"/><path class="g" d="M376.469,666.519a18.113,18.113,0,0,0-.99,3.34,38.223,38.223,0,0,0-.449,9.48c.241,4.558,0,35.1,0,35.1s-5.15,8.145-8.022,11.017,5.86,8.028,5.86,8.028c1.3,7.423-6.589,15.809-6.589,15.809-8.022-9.7-17.723,2.4-17.723,2.4s-5.274-9.116-6.589-12.371,5.15-5.508,7.423-6.83-.111-9.115-.111-9.115-1.921-6.83-4.2-13.061,2.513-37.25,2.513-37.25a48.065,48.065,0,0,1,.84-7.429,12.424,12.424,0,0,0,.176-4.219c-.039-.475-.085-.872-.117-1.139s-.059-.391-.059-.391l.091-.156,3.256-6.068S378.031,662.7,376.469,666.519Z" transform="translate(-149.839 -266.234)"/><path class="g" d="M452.833,745.4s-5.86-.124-8.985,2.6-18.231.6-17.58,0,.6-5.033.6-5.033c-8.862-12.1-1.3-17.007-1.3-17.007s-3.959-19.045-4.675-26.109c-.5-4.935-1.12-18.2-1.452-25.771-.143-3.255-.228-5.5-.228-5.5l7.24-1.458.931-.189,17.463-3.5s.482,3.256.807,5.919a27.669,27.669,0,0,1,.273,3.431c-.117,1.3,0,5.378,0,5.378l.592,12.221a13.882,13.882,0,0,0-.593,3.952c.117,1.556,2.39,23.837,2.39,23.837s3.952,13.3,2.6,14.253S452.833,745.4,452.833,745.4Z" transform="translate(-176.85 -269.646)"/><path class="e" d="M412.78,297.558a14.776,14.776,0,0,0-.4,5.424,22.3,22.3,0,0,1-23.713-.443A80.26,80.26,0,0,0,387.51,293S414.342,293.592,412.78,297.558Z" transform="translate(-165.79 -140.402)"/><path class="f" d="M418.379,265.961a22.051,22.051,0,0,1-1.094,6.908,22.281,22.281,0,0,1-43.455-6.374v-.534a22.279,22.279,0,1,1,44.559,0Z" transform="translate(-161.017 -123.195)"/><path class="e" d="M404.168,340.314c-8.595-3.34-19.65-14.376-16.89-19.533a11.537,11.537,0,0,0,1.074-4.141l11.766,9.669,7.279,5.971,5.534-14.09c.469,2.956.938,5.209.938,5.209s-1.641,2.3-2.6,2.422S416.5,345.074,404.168,340.314Z" transform="translate(-165.559 -148.65)"/><path class="g" d="M383.029,323.862,373.2,488.917l-12.814.84-33.18-95.706,5.443-113.625L333.8,256.42l14.754,12.117,7.286,5.971,5.7-14.5,10.594,9.233Z" transform="translate(-113.994 -89.465)"/><path class="e" d="M380.03,666.547a18.113,18.113,0,0,0-.99,3.34,94.409,94.409,0,0,1-26.865-8.393L352,661.4l.059-1.048.033-.547,3.256-6.068S381.593,662.725,380.03,666.547Z" transform="translate(-153.401 -266.262)"/><path class="e" d="M426.579,675.293a65.91,65.91,0,0,1-7.2.82c-.143-3.256-.228-5.5-.228-5.5l7.24-1.458Z" transform="translate(-176.829 -271.642)"/><path class="e" d="M449.97,669.409c-4.629,1.2-11.779,2.559-18.179,1.712l-.091-4.128,17.463-3.5S449.645,666.713,449.97,669.409Z" transform="translate(-181.208 -269.663)"/><path class="e" d="M386.423,550.292c-26.7,4.558-51.145-8.51-51.145-8.51l.234-4.427s.606-50.194-1.074-54.042-2.989-23.362-2.038-26.357-3.47-47.909-3.47-47.909l-.716-18.231L302,380.2l11.72-24.43a88.153,88.153,0,0,0,4.076-10.548c2.038-6.342,11.5-12.573,11.5-12.573s9.7-6.225,13.537-5.99,8.862-5.508,8.862-5.508c3.711-9.461,7.071-5.176,7.071-5.176a8.452,8.452,0,0,1-.182,1.4c-1.3,10.385,21.057,43.2,21.376,43.78h0l2.129,51.867,2.155,65.638Z" transform="translate(-135.956 -148.079)"/><path class="d" d="M385.312,550.271c-26.7,4.558-51.151-8.51-51.151-8.51l.241-4.427s.606-50.194-1.081-54.042-2.989-23.362-2.031-26.357-3.47-47.909-3.47-47.909L327.1,390.8,300.87,380.137l11.72-24.43a89.537,89.537,0,0,0,4.076-10.548c2.031-6.342,11.5-12.573,11.5-12.573s9.7-6.225,13.53-5.99,8.862-5.508,8.862-5.508c3.718-9.461,7.813-5.176,7.813-5.176,0,.449-.391.651-.182,1.4,2.865,10.073,20.341,43.2,20.66,43.78h0L381,412.959l2.155,65.638Z" transform="translate(-135.562 -148.058)"/><path class="e" d="M406.332,363.378c-2.871-1.2-18.081-18.563-18.081-18.563v-3.952c-.553-1.3-3.842-.508-6.511.4l1.146-24.006,1.3,1.081C387.04,328.407,406,362.8,406.332,363.378Z" transform="translate(-163.777 -148.866)"/><path class="d" d="M407.439,361.168c-2.878-1.2-18.088-18.563-18.088-18.563v-3.952c-.553-1.3-3.842-.508-6.511.4l1.152-24.006,1.3,1.081C388.153,326.2,407.12,360.6,407.439,361.168Z" transform="translate(-164.161 -148.095)"/><path class="e" d="M352.325,517.864c.358,0,18.563-1.914,18.563-1.914s11.023,21.675,10.3,26.949-2.031,9.942-6.465,9.116-23.863.651-23.863.651Z" transform="translate(-153.003 -218.188)"/><path class="d" d="M351.215,515.654c.358,0,18.563-1.914,18.563-1.914s11.017,21.682,10.3,26.949-2.038,9.942-6.465,9.115-23.863.651-23.863.651Z" transform="translate(-152.616 -217.417)"/><path class="f" d="M367.735,501.05s16.707,8.979,17.066,11.72-8.5-1.2-10.418-1.673a23.846,23.846,0,0,0-3.835-.6l-12.768.345Z" transform="translate(-155.418 -212.989)"/><circle class="e" cx="1.758" cy="1.758" r="1.758" transform="translate(236.135 212.116)"/><circle class="h" cx="1.758" cy="1.758" r="1.758" transform="translate(236.135 211.399)"/><circle class="e" cx="1.758" cy="1.758" r="1.758" transform="translate(239.371 288.217)"/><circle class="h" cx="1.758" cy="1.758" r="1.758" transform="translate(239.371 287.494)"/><circle class="e" cx="1.758" cy="1.758" r="1.758" transform="translate(237.887 250.166)"/><circle class="h" cx="1.758" cy="1.758" r="1.758" transform="translate(237.887 249.45)"/><path class="d" d="M459.7,446.568s1.2,1.8,0,2.637.117,2.871.117,2.871-2.989,1.751-1.673,3.327.482,8.692.482,8.692l-3.594,5.951s.215,3.835.228,9.018c0,8.087-.475,19.455-3.106,24.638l.365,42.524s-12.586,4.6-23.121,3.2l-1.563-68.236s2.279-38.7,3.119-46.118a77.281,77.281,0,0,0,.6-11.622s-.358-11.616-1.563-17.007c0,0-1.3-23.355-1.432-29.821-.059-3.093.1-12.117.287-20.7.2-9.382.43-18.231.43-18.231l-2.377-18.8s2.377-.241,3.093.716a6.856,6.856,0,0,0,1.042.8h0c4.1,2.774,18.6,11.3,18.6,11.3s8.022,3.19,9.942,7.761,3.256,7.813,4.187,9.116,1.439,7.423,1.439,7.423,2.761,11.264,4.916,13.172,3.731,14.044,3.731,14.044L454.8,398.2s-1.673,24.911-2.031,25.875S459.7,446.568,459.7,446.568Z" transform="translate(-179.533 -149.424)"/><path class="d" d="M460.4,446.457s1.191,1.8,0,2.637.111,2.871.111,2.871-2.969,1.771-1.667,3.347.482,8.692.482,8.692l-3.594,5.951s.215,3.835.234,9.018c0,8.087-.475,19.455-3.106,24.638l.358,42.524s-12.605,4.6-23.127,3.2L428.536,481.1s2.279-38.7,3.119-46.118a76.553,76.553,0,0,0,.592-11.622s-.358-11.616-1.556-17.007c0,0-1.3-23.355-1.439-29.821-.059-3.093.111-12.117.286-20.7.2-9.382.43-18.231.43-18.231L426.83,318.54s3.138,0,3.861.97a6.18,6.18,0,0,0,1.042.8h0c4.1,2.774,18.6,11.3,18.6,11.3s8.015,3.19,9.936,7.761,3.256,7.813,4.193,9.116,1.432,7.423,1.432,7.423,2.761,11.264,4.916,13.172,3.711,14.018,3.711,14.018l-19.045,14.975s-1.673,24.911-2.038,25.875S460.4,446.457,460.4,446.457Z" transform="translate(-179.509 -149.313)"/><path class="e" d="M437.98,343.89,439.7,348.9l-9.05,9.116c.2-9.376.43-18.231.43-18.231L427.94,320.73s3.138,0,3.861.97a5.941,5.941,0,0,0,1.042.794h0l7.7,22.2Z" transform="translate(-179.896 -150.077)"/><path class="d" d="M436.87,341.68l1.725,5.014-9.05,9.116c.2-9.382.43-18.231.43-18.231L426.83,318.52s3.145,0,3.861.97a6.514,6.514,0,0,0,1.042.8h0l7.7,22.2Z" transform="translate(-179.509 -149.306)"/><path class="e" d="M418.379,265.961a22.053,22.053,0,0,1-1.094,6.908.931.931,0,0,1-.7-.176c-.169-5.86-3.054-11.362-6.6-16.043a16.857,16.857,0,0,0-3.581-3.711,7.006,7.006,0,0,0-4.857-1.374c-1.953.267-3.679,1.6-5.652,1.764-2.6.215-4.935-1.589-7.52-1.68a7.39,7.39,0,0,0-5.528,2.565,15.165,15.165,0,0,0-2.963,5.5,32.152,32.152,0,0,0-1.654,9.48c-.033,1.823-.208,4.108-1.9,4.773a9.728,9.728,0,0,0-2.455-7.429l-.039-.039v-.534a22.279,22.279,0,1,1,44.559,0Z" transform="translate(-161.017 -123.195)"/><path class="i" d="M401.684,222.788a15.34,15.34,0,0,0-10.821-.846c-1.8.534-3.5,1.4-5.333,1.836-3.907.944-8.464-.078-11.818,2.207-1.862,1.3-2.982,3.36-4.024,5.359l-2.6,4.961a32.2,32.2,0,0,0-3.444,8.464,10.807,10.807,0,0,0,1.66,8.738c1.38,1.751,3.418,2.852,4.916,4.5a9.767,9.767,0,0,1,2.448,7.423c1.7-.651,1.862-2.943,1.9-4.766a32.151,32.151,0,0,1,1.654-9.48,15.113,15.113,0,0,1,2.963-5.5,7.4,7.4,0,0,1,5.528-2.565c2.6.091,4.942,1.888,7.52,1.673,1.953-.163,3.685-1.5,5.652-1.758a6.98,6.98,0,0,1,4.857,1.374,16.682,16.682,0,0,1,3.575,3.711c3.555,4.681,6.439,10.17,6.609,16.043.736.54,1.8-.163,2.162-1a23.8,23.8,0,0,1,.84-2.6,9.6,9.6,0,0,1,2.357-2.1c2.031-1.751,2.539-4.7,2.461-7.377s-.6-5.391-.091-8.022c.306-1.615,1-3.125,1.374-4.721a6.172,6.172,0,0,0-.469-4.76c-1.3-2.018-4.043-2.416-6.433-2.6-2.715-.234-5.144.065-6.876-2.22a24.938,24.938,0,0,0-2.735-3.347C405.168,225.08,401.684,222.931,401.684,222.788Z" transform="translate(-157.371 -115.397)"/><path class="e" d="M308.719,427.709l-6.8-12.579-2.155,19.41s1.2,8.621.957,9.942,4.909,13.172,4.909,13.172,17.013,30.3,23.961,31.865l23.472-16.773-6.225-7.9s-2.155-.84-2.7,0c0,0-11.557-19.885-12.755-21.324s-.964-4.31-.964-4.31-1.8-1.914-1.2-3.711-3.47-8.028-3.47-8.028l3.711-3.47Z" transform="translate(-135.175 -183.012)"/><path class="d" d="M301.5,412.93l-1.8,1.432-2.155,19.41s1.2,8.621.957,9.942,4.916,13.172,4.916,13.172,17.007,30.3,23.954,31.865l23.479-16.773-6.231-7.9s-2.155-.84-2.7,0c0,0-11.557-19.885-12.755-21.324s-.957-4.31-.957-4.31-1.8-1.914-1.2-3.711-3.477-8.028-3.477-8.028l3.711-3.47Z" transform="translate(-134.404 -182.245)"/><path class="e" d="M467.611,523.5c1.3,1.582.482,8.686.482,8.686l-3.594,5.951s.215,3.842.228,9.018l-6.042,1.888a3.588,3.588,0,0,1-4.655-3.536l1.042-33.6,14.1,5.391c-1.2.833.117,2.878.117,2.878S466.3,521.914,467.611,523.5Z" transform="translate(-188.998 -216.775)"/><path class="d" d="M468.718,522.39c1.3,1.582.482,8.692.482,8.692l-3.594,5.951s.215,3.835.234,9.018l-6.153,1.921a3.516,3.516,0,0,1-4.558-3.464l1.048-33.708,14.1,5.391c-1.2.833.111,2.871.111,2.871S467.416,520.814,468.718,522.39Z" transform="translate(-189.381 -216.391)"/><path class="f" d="M477.127,501.191s-.957,6.114-3.353,6.472-3.47,9.89-5.86,9.552-.807-8.862-.723-10.515-2.6-8.5-.593-10.06,8.38,0,8.38,0Z" transform="translate(-193.122 -211.209)"/><path class="e" d="M480.908,426.806l4.519-9.116s1.8,6.947,1.8,10.659,2.513,4.076,2.513,4.076,2.754,3.256,1.3,5.626S489,446.319,489,446.319s.475,11.258-1.68,12.814-2.6,5.274-2.6,5.274-3.959,7.065-3.835,8.744-5.508,13.055-5.508,13.055,2.754-14.136-13.3-20.243c0,0-.124-4.8,1.074-6.114s3.067-1.914,1.895-8.562-.339-14.591-.339-16.187,3.594-11.544,3.594-11.544Z" transform="translate(-191.805 -183.906)"/><path class="d" d="M483.591,415.69l3.946,1.3s1.8,6.947,1.8,10.659,2.513,4.076,2.513,4.076,2.754,3.256,1.3,5.626-2.031,8.269-2.031,8.269.475,11.258-1.68,12.814-2.637,5.274-2.637,5.274-3.952,7.065-3.828,8.744-5.515,13.055-5.515,13.055,2.761-14.136-13.3-20.243c0,0-.117-4.8,1.081-6.114s3.067-1.914,1.895-8.562-.339-14.591-.339-16.187,3.594-11.544,3.594-11.544Z" transform="translate(-192.535 -183.208)"/><path class="e" d="M360.15,777.421s6.29-3.952,10.418-1.081S360.15,777.421,360.15,777.421Z" transform="translate(-156.244 -308.671)"/><path class="e" d="M435.21,759.771a12.733,12.733,0,0,1,10.242,4.317C450.127,769.121,435.21,759.771,435.21,759.771Z" transform="translate(-182.432 -303.243)"/><g class="j" transform="translate(206.012 120.238)"><path d="M423.284,267.9a9.659,9.659,0,0,0-2.363,2.1,23.817,23.817,0,0,0-.833,2.6c-.365.846-1.426,1.537-2.162,1-.169-5.86-3.06-11.362-6.609-16.05a16.681,16.681,0,0,0-3.575-3.711,7,7,0,0,0-4.864-1.374c-1.953.267-3.672,1.6-5.645,1.758-2.6.221-4.942-1.582-7.527-1.673a7.371,7.371,0,0,0-5.521,2.572,15.08,15.08,0,0,0-2.962,5.489,32.188,32.188,0,0,0-1.654,9.48c-.039,1.817-.208,4.082-1.888,4.76a8.919,8.919,0,0,1,0,1.445c1.693-.651,1.862-2.943,1.9-4.766a32.153,32.153,0,0,1,1.654-9.48,15.111,15.111,0,0,1,2.963-5.5A7.39,7.39,0,0,1,389.719,254c2.6.091,4.948,1.888,7.527,1.673,1.953-.163,3.685-1.5,5.645-1.758a7,7,0,0,1,4.864,1.374A16.683,16.683,0,0,1,411.329,259c3.549,4.681,6.439,10.17,6.609,16.043.736.54,1.8-.163,2.162-1a25.246,25.246,0,0,1,.833-2.6,9.634,9.634,0,0,1,2.363-2.1c2.031-1.751,2.539-4.7,2.461-7.377v-.247C425.634,264.037,425.016,266.4,423.284,267.9Z" transform="translate(-368.372 -246.49)"/><path d="M370.231,270.205c-1.5-1.647-3.542-2.748-4.916-4.493a9.532,9.532,0,0,1-1.895-5.333,10.027,10.027,0,0,0,1.895,6.765c1.374,1.751,3.418,2.852,4.916,4.5a9.767,9.767,0,0,1,2.455,5.808,9.767,9.767,0,0,0-2.455-7.247Z" transform="translate(-363.385 -249.259)"/><path d="M452.613,244.589c-.384,1.6-1.068,3.112-1.38,4.721a15.036,15.036,0,0,0-.2,3.256,12.637,12.637,0,0,1,.2-1.849c.313-1.615,1-3.125,1.38-4.721a8.01,8.01,0,0,0,.215-2.7A9.047,9.047,0,0,1,452.613,244.589Z" transform="translate(-393.958 -243.3)"/></g><ellipse class="b" cx="63.444" cy="10.19" rx="63.444" ry="10.19" transform="translate(23.145 474.844)"/><rect class="k" width="4.082" height="91.917" transform="translate(84.551 289.832)"/><path class="h" d="M192.832,641.168l-.254,4.141-.365,5.86-.15,2.435-.358,5.86-.156,2.435-.365,5.86-4.115,66.459a11.264,11.264,0,0,1-11.238,10.561h-21.4A11.258,11.258,0,0,1,143.2,734.217l-4.1-66.5-.365-5.86-.15-2.435-.365-5.86-.15-2.435-.365-5.86-.26-4.141a5.86,5.86,0,0,1,5.86-6.192h43.761a5.821,5.821,0,0,1,5.756,6.238Z" transform="translate(-78.545 -259.699)"/><path class="l" d="M145.468,592.24l-.365,5.84H90.945l-.365-5.84Z" transform="translate(-31.435 -206.63)"/><path class="l" d="M145.23,604.95l-.358,5.847H91.735l-.365-5.847Z" transform="translate(-31.711 -211.065)"/><path class="l" d="M144.991,617.68l-.358,5.84H92.525l-.365-5.84Z" transform="translate(-31.986 -215.506)"/><path class="g" d="M100.164,546.939c23.772,17.2,33.695,44.106,33.695,44.106s-28.649-.983-52.427-18.185-33.682-44.1-33.682-44.1S76.386,529.737,100.164,546.939Z" transform="translate(-47.25 -222.657)"/><path class="m" d="M47.72,528.76S77.463,545.266,87,558.932s46.847,32.113,46.847,32.113" transform="translate(-47.24 -222.657)"/><path class="g" d="M136.532,498.157c12.938,9.356,18.348,24,18.348,24s-15.594-.534-28.538-9.89S108,488.26,108,488.26,123.588,488.794,136.532,498.157Z" transform="translate(-68.271 -208.527)"/><path class="m" d="M108,488.26s16.187,8.985,21.376,16.421,25.5,17.476,25.5,17.476" transform="translate(-68.271 -208.527)"/><path class="g" d="M199.2,527.667c-14.865,16.336-18.01,37.686-18.01,37.686s20.959-5.144,35.811-21.487,18.01-37.686,18.01-37.686S214.064,511.33,199.2,527.667Z" transform="translate(-93.807 -214.779)"/><path class="m" d="M235.024,506.19s-19.364,16.746-24.286,28.284-29.547,30.882-29.547,30.882" transform="translate(-93.807 -214.783)"/><path class="n" d="M968.6,437.315s-10.75-53.482-6.635-60.136c0,0,.15-6.186-.1-14.07V362.2a20.021,20.021,0,0,0,2.259,1.3,18.283,18.283,0,0,0,12.306,1.589l-3.255-3.627a6.01,6.01,0,0,1-1.764-2.95,6.178,6.178,0,0,1,.7-3.19c3.093-7.813,3.256-17.638-2.7-23.6-5.033-5.014-6.257-11.486-11.72-16.063-3.991-3.353-6.185-8.269-8.256-13.022a73.238,73.238,0,0,1-4.519-12.326c-.781-3.327-1.094-6.771-2.168-10.021s-3.086-6.407-6.231-7.859a23.508,23.508,0,0,1-3.386-1.491c-1.341-.905-2.149-2.377-3.119-3.666-4.929-6.511-21.434-2.676-29.248-.033a16.455,16.455,0,0,0-5.782,3.2l.072-.117c.059-.1.13-.2.2-.293a10.274,10.274,0,0,0-2.188,2.442c-1.139,1.8-1.615,3.907-2.565,5.86-1.146,2.311-7.52,8.764-4.779,11.362a2.31,2.31,0,0,0,.651.417,5.632,5.632,0,0,0,3.255.326l-.117.28a19.031,19.031,0,0,0-1.413,7.221,19.543,19.543,0,0,0,19.716,19.37,19.9,19.9,0,0,0,6.036-.931c.046.247.085.495.13.742a2.274,2.274,0,0,0,.046.293h0l-.345.482a.66.66,0,0,0-.059-.085L903.4,332.1c-1.563,1.1-10.561,7.611-11.069,12.495-.534,5.346-1.068,11.6-1.068,11.6l-.072,1.341a4.024,4.024,0,0,1-3.255.879c-3.19-.521-3.19,11.72-3.19,11.72s-2.123,1.953-3.581.26-5.313,4.043-5.313,4.043L851.7,375.486h0l-.553.033-1.3-4.03a1.7,1.7,0,0,0-2.129-1.087,1.947,1.947,0,0,0-.293.124l-.091.052-.169.117-.085.078a1.307,1.307,0,0,0-.13.137l-.078.091-.039.039h0a1.641,1.641,0,0,0-.234,1.458l1.12,3.457c-4.662.938-9.428,3.581-5.541,10.861l-19.7-3.64,6.374,5.352,32.907,6.791c-.436.781-.15,1.914,1.211,3.509,5.86,6.882,16.538,8.751,20.835,9.233a36.988,36.988,0,0,0,4.226,7.162l-.371,6.856s-10.88,52.258-12.872,54.908a30.98,30.98,0,0,0,2.754-3.627c-3.158,10.737-7.572,25.432-8.731,27.633-1.862,3.516-3.588,17.743-1.465,18.654.651.28,2.513.143,5.17-.059v1.179l-.117,44.66s.534,27.392-.931,30-1.856,8.087-1.856,8.087-5.86,10.8-10.5,15.145a.7.7,0,0,1-.1.091l-.143-1.016s-5.58,7.045-17.925,6.648c0,0-7.429,4.831,3.588,5.092s25.087-.391,25.087-.391,9.825-14.975,18.055-13.022v11.349h2.52V615.881a10.333,10.333,0,0,0,4.486-6.791,8.256,8.256,0,0,0-2.943-7.638,4.883,4.883,0,0,1-1.608-3.568l-.091.078a6.9,6.9,0,0,0-.085-.7c-.723-5.86-1.628-17.951,1.569-26.9,4.382-12.267,5.71-29.352,2.52-39.522a90.9,90.9,0,0,1-2.533-9.9c-.078-.423-.15-.827-.215-1.2a51.325,51.325,0,0,1,6.465,1.3c7.39,2.038,23.557,2.416,37.361,2.3.033.378.072.775.117,1.172a42.65,42.65,0,0,0,1.537,8.152c1.732,5.209,2.526,28.173,2.526,28.173s2.233,18.882,1.016,26.565c-.651,4.271-1.3,8.562-1.673,12.872v.085s-3.659,10.418-6.335,16.076c-.065.143-.137.286-.2.423a8.466,8.466,0,0,0-2.09.462s-3.588,7.162-7.162,8.347-2.39,5.085,5.7,3.653,20.315-2.6,20.315-2.6l.527-7.305,2.487-3.112-.651,7.286,2.65-.521-.352-8.862,4.069-5.092s4.916-4.375-2.39-12.983v.189c-.078-.124-.15-.254-.234-.378V595.9c-1.211-1.875-2.175-5.372-.41-11.577,3.19-11.212,5.046-21.389,5.046-21.389s7.123-27.262-1.439-40.16h.378a21.694,21.694,0,0,1-1.843-5.73q-.065-.352-.117-.723c6.335-.365,12.553-1.511,17.626-3.985C974.185,512.31,971.131,447.616,968.6,437.315Zm-80.431-45.122v.13l-1.3.065Zm-4.467.619a1.439,1.439,0,0,0-.586.28,5.782,5.782,0,0,0-1.022,2.676l-2.031-.456s-1.426-.306-3.477-.651l-.97-.977C878.289,393.463,881.063,393.137,883.707,392.812Z" transform="translate(-317.544 -130.177)"/><path class="o" d="M972.095,742.832l-.775,9.226,2.6-.521-.391-10.008Z" transform="translate(-338.719 -258.716)"/><path class="p" d="M909.738,705.283c-3.132,8.92-2.246,20.959-1.543,26.806.261,2.162.5,3.477.5,3.477s-4.681,10.665-5.072,11.069-13.777,8.575-13.777,8.575l-9.356,5.463s-9.493-4.161-4.942-5.593A6.908,6.908,0,0,0,878,753.407c4.558-4.33,10.281-15.093,10.281-15.093s.391-5.463,1.823-8.061.912-29.9.912-29.9l.111-44.5v-5.8l17.808.13a40.305,40.305,0,0,0,.768,5.86,89.6,89.6,0,0,0,2.481,9.871C915.324,676.062,914.022,693.062,909.738,705.283Z" transform="translate(-335.632 -264.974)"/><path class="e" d="M908.7,779.534s-4.681,10.665-5.072,11.069-13.777,8.575-13.777,8.575l-9.356,5.463s-9.493-4.161-4.942-5.593A6.909,6.909,0,0,0,878,797.374l.4,2.845,3.119-.13,26.7-24.019C908.455,778.219,908.7,779.534,908.7,779.534Z" transform="translate(-335.632 -308.942)"/><path class="o" d="M899.508,777l-26.845,24.182-3.119.13-.651-4.558s-5.456,7.019-17.58,6.628c0,0-7.279,4.812,3.509,5.072s24.566-.391,24.566-.391,9.623-14.975,17.678-13.022v11.31h2.474V794.938a10.281,10.281,0,0,0,4.388-6.771,8.3,8.3,0,0,0-2.871-7.6,4.9,4.9,0,0,1-1.55-3.562Z" transform="translate(-326.77 -309.266)"/><path class="p" d="M1010.594,718.931c-1.732,6.186-.788,9.669.4,11.538v.039a21.324,21.324,0,0,1,3.112,7.6l.1.586L1001.993,756.5l-6.628,2.6s-10.659-3.64-8.712-4.681c.488-.254,1.25-1.608,2.123-3.477,2.6-5.632,6.2-16.024,6.2-16.024v-.085c.378-4.291.977-8.569,1.641-12.827,1.191-7.664-1-26.474-1-26.474s-.781-22.873-2.474-28.076a42.934,42.934,0,0,1-1.517-8.1c-.352-3.256-.43-5.938-.43-5.938s7.019-9.767,19.885.781a14.155,14.155,0,0,1,2.689,2.917c8.888,12.644,1.732,40.5,1.732,40.5S1013.713,707.752,1010.594,718.931Z" transform="translate(-374.744 -264.714)"/><path class="e" d="M1014.238,782.1l-12.215,17.808-6.628,2.6s-10.659-3.64-8.712-4.682c.488-.254,1.25-1.608,2.123-3.477,4.512-.039,6.85,4.258,6.85,4.258l5.717-.912s7.54-14.819,9.233-15.724.26-6.765.26-6.765V773.72c.046.052.085.111.137.163v.039a21.324,21.324,0,0,1,3.112,7.6Z" transform="translate(-374.754 -308.122)"/><path class="o" d="M991.337,799.2s-3.255-5.977-9.493-3.77c0,0-3.51,7.162-7.019,8.321s-2.337,5.066,5.593,3.64,19.885-2.6,19.885-2.6l.521-7.286,8.061-10.268s4.805-4.356-2.344-12.931v1.491s1.432,5.86-.26,6.765-9.207,15.731-9.207,15.731Z" transform="translate(-370.045 -308.324)"/><path class="e" d="M917.967,650.16a40.3,40.3,0,0,0,.768,5.86,81.685,81.685,0,0,0-18.6-.189v-5.8Z" transform="translate(-344.643 -264.967)"/><path class="e" d="M1017.071,658.739s-10.418.508-22.841.612c-.352-3.255-.43-5.938-.43-5.938s7.019-9.767,19.885.781a14.15,14.15,0,0,1,2.689,2.917,15.908,15.908,0,0,0,.7,1.628Z" transform="translate(-377.32 -264.711)"/><path class="o" d="M981.173,596.454s-45.63,2.207-59.537-1.693-27.692-.521-29.769-1.426-.391-15.08,1.432-18.589,11.824-39,11.824-39l9.623-50.174,10.138-2.793.716-.2,17.665-4.87,12.944-3.575s25.738,100.485,23.531,107.9a18.973,18.973,0,0,0-.378,8.718A21.758,21.758,0,0,0,981.173,596.454Z" transform="translate(-341.423 -203.597)"/><path class="q" d="M873.43,439s-9.115,9.767-2.214,15.21,11.44.521,11.44.521Z" transform="translate(-333.65 -191.34)"/><path class="e" d="M873.43,439s-9.115,9.767-2.214,15.21,11.44.521,11.44.521Z" transform="translate(-333.65 -191.34)"/><path class="p" d="M978.661,330.841s-1.068,1.016-2.676,2.513c-2.292,2.142-5.684,5.274-8.692,7.9-4.167,3.627-7.6,6.29-6.374,4.017s1-6.231.384-9.936c-.046-.247-.085-.495-.13-.736a68.225,68.225,0,0,0-2.012-8.048s6.733-8.7,10.457-12.13c1.387-1.3,2.357-1.836,2.416-.931a30.25,30.25,0,0,0,2.11,6.759c.032.091.065.176.1.267.755,1.953,1.608,3.959,2.357,5.691C977.749,328.861,978.661,330.841,978.661,330.841Z" transform="translate(-365.234 -147.393)"/><path class="e" d="M974.246,320.518A19.325,19.325,0,0,1,961.3,335.337a67.762,67.762,0,0,0-2.142-8.783s12.677-16.375,12.872-13.061C972.078,314.749,973.068,317.536,974.246,320.518Z" transform="translate(-365.234 -147.397)"/><path class="e" d="M947.448,352.761l1.641-2.311s1.087,6.628,5.085,3.7,4.193,22,4.193,22l-4.291,64.154-31.006-1.856.879-31,3.509-15.627,8.679-22.717L941.3,361.6Z" transform="translate(-352.643 -160.446)"/><path class="o" d="M958.377,376.748l-3.907,58.007-.41,6.146-17.287-1.035-.651-.039-13.022-.781.879-31.006,3.509-15.627,8.679-22.717,5.163-7.507,6.147-8.875,1.641-2.3s1.087,6.628,5.085,3.7l.085-.059h0C958.195,352.182,958.377,376.748,958.377,376.748Z" transform="translate(-352.653 -160.641)"/><path class="d" d="M908.98,406.26s-1.556,3.256-4.682,2.728-3.119,11.72-3.119,11.72-2.077,1.953-3.51.26-5.209,4.03-5.209,4.03L868.8,426.041s10.528,4.812,8.464,19.37c0,0,35.746-2.214,36.918-5.593S908.98,406.26,908.98,406.26Z" transform="translate(-333.709 -179.918)"/><path class="r" d="M908.98,406.26s-1.556,3.256-4.682,2.728-3.119,11.72-3.119,11.72-2.077,1.953-3.51.26-5.209,4.03-5.209,4.03L868.8,426.041s10.528,4.812,8.464,19.37c0,0,35.746-2.214,36.918-5.593S908.98,406.26,908.98,406.26Z" transform="translate(-333.709 -179.918)"/><path class="d" d="M777.66,389.76l6.238,5.326,51.346,10.789-6.368-6.5Z" transform="translate(-271.152 -135.986)"/><path class="d" d="M940.742,353.888c-.853,1.3-3.295,7.97-5.333,13.79-1.7,4.851-3.119,9.116-3.119,9.116s-3.314,21.578-5.007,25.478-.775,19.11-.775,19.11L920.2,458.944s-2.858,19.37-7.273,30.941c-4.356,11.388-9.207,16.727-9.356,16.9,1.953-2.643,12.6-54.693,12.6-54.693l3.516-65.645s.514-6.238,1.035-11.57,11.069-12.612,11.069-12.612l10.17-14.461C942.982,349.167,942.3,351.55,940.742,353.888Z" transform="translate(-345.839 -159.521)"/><path class="p" d="M907.287,479s-14.975-.651-22.229-9.363,16.766-3.477,16.766-3.477l6.244,1.432Z" transform="translate(-338.905 -200.274)"/><path class="e" d="M997.946,540.968a18.974,18.974,0,0,0-.378,8.718c-16.336,1.159-33.812-3.256-33.812-3.256-3.256,3-11.831,7.41-11.831,7.41l-4.675-57.949c-2.989-7.813-4.161-48.748-4.161-48.748s.267-2.142.651-5.352a.617.617,0,0,1,.033-.241c1.166-8.966,3.477-25.8,4.61-28.069,1.563-3.125-4.805-11.44-4.805-11.44l2.9-24.71.352-2.982c6.107-2.728,10.789-11.44,10.789-11.44l3.594-6.3h0c3.907-2.507,4.108,22.06,4.108,22.06l-3.907,58.007,12.944-3.575S1000.153,533.559,997.946,540.968Z" transform="translate(-359.628 -162.534)"/><path class="d" d="M1015.13,536.657c-17.808,8.842-50.174.651-50.174.651-3.256,3-11.831,7.41-11.831,7.41l-4.681-57.949c-2.982-7.813-4.154-48.748-4.154-48.748s3.763-30.543,5.326-33.662a5.017,5.017,0,0,0-.306-3.724,47.125,47.125,0,0,1-2.852-21.806l1.25-10.62.345-2.976c6.114-2.735,10.8-11.446,10.8-11.446l3.255-5.7,5.99-10.509,2.839-4.974.482.436,3.679,3.334L979,339.625c5.1,4.3,13.908,11.863,18.452,16.493,4,4.076,5.261,19.93,5.625,31.865.241,7.859.1,14.018.1,14.018-4.03,6.635,6.511,59.9,6.511,59.9C1012.142,472.2,1015.13,536.657,1015.13,536.657Z" transform="translate(-360.047 -154.218)"/><path class="r" d="M971.228,364.448s-12.221,23.264-10.8,32.106,5.456,18.85,3.509,21.187a7.2,7.2,0,0,1-5.723,2.858c-1.953.13-7.162,3.77-7.162,4.161s-4.812.391-9.115,2.214a56.756,56.756,0,0,1-10.659,2.858s-12.371-.391-13.523.781-2.338,8.184.13,13.777,5.209,9.767,7.279,10.528,15.21-3.64,25.868-4.681,22.229-9.487,22.229-9.487S986,436.194,988.235,428.53s-2.728-49.784-2.728-49.784S981.757,359.115,971.228,364.448Z" transform="translate(-350.327 -165.009)"/><path class="r" d="M968.838,361.449s-12.221,23.271-10.789,32.106,5.456,18.85,3.5,21.194a7.162,7.162,0,0,1-5.717,2.858c-1.953.13-7.162,3.77-7.162,4.161s-4.812.391-9.115,2.207a57.313,57.313,0,0,1-10.659,2.858s-12.371-.391-13.517.781-2.344,8.191.13,13.777,5.209,9.767,7.279,10.528,15.21-3.64,25.869-4.675,22.229-9.493,22.229-9.493,12.736-4.558,14.943-12.215-2.728-49.79-2.728-49.79S979.367,356.123,968.838,361.449Z" transform="translate(-349.5 -163.964)"/><path class="d" d="M970.645,362.653s-12.221,23.271-10.789,32.106,5.456,18.85,3.509,21.187a7.162,7.162,0,0,1-5.723,2.865c-1.953.13-7.162,3.77-7.162,4.154s-4.805.391-9.116,2.214a56.885,56.885,0,0,1-10.659,2.858s-12.371-.391-13.524.781-2.337,8.191.13,13.777,5.209,9.767,7.279,10.528,15.21-3.64,25.868-4.681,22.229-9.487,22.229-9.487,12.742-4.558,14.976-12.221-2.7-49.784-2.7-49.784S981.167,357.353,970.645,362.653Z" transform="translate(-350.128 -164.386)"/><path class="e" d="M995.793,458.689s-9.767-1.953-6.368,1.3,3.379,6.107,7.54,5.977S995.793,458.689,995.793,458.689Z" transform="translate(-375.543 -198.007)"/><path class="e" d="M1024.322,566.58s-4.415,2.989,4.03,9.877S1024.322,566.58,1024.322,566.58Z" transform="translate(-387.567 -235.852)"/><path class="e" d="M1011.9,604.31c0,.391-1.563,14.324,4.284,17.808S1011.9,604.31,1011.9,604.31Z" transform="translate(-383.568 -249.016)"/><path class="p" d="M863.474,436.59c-4.714.163-14.9,1.6-9.617,11.453,4.668,8.718,12.514,2.891,16.929-1.53a16.636,16.636,0,0,0-7.312-9.923Z" transform="translate(-327.978 -190.5)"/><path class="p" d="M881.39,451Z" transform="translate(-338.101 -195.527)"/><path class="p" d="M880.74,451.6l.2-.2Z" transform="translate(-337.874 -195.667)"/><path class="e" d="M980.832,340.229c-5,3.418-9.194,6.3-10.014,6.9-2.24,1.66-6.511,11.407-9.265,16.382-2.194,4-9.324,5.033-12.013,5.287l.345-2.976c6.114-2.735,10.8-11.446,10.8-11.446l12.084-21.187,4.161,3.783Z" transform="translate(-361.878 -154.424)"/><path class="s" d="M980.832,339.628c-5,3.418-9.194,6.3-10.014,6.908-2.24,1.654-6.511,11.4-9.265,16.375-2.194,4-9.324,5.033-12.013,5.287l.345-2.976c6.114-2.735,10.8-11.446,10.8-11.446l12.084-21.187,4.161,3.77S978.488,337.649,980.832,339.628Z" transform="translate(-361.878 -154.215)"/><path class="p" d="M962.122,307.573a19.312,19.312,0,1,1-16.417-19.09,19.28,19.28,0,0,1,16.417,19.09Z" transform="translate(-352.792 -138.749)"/><path class="e" d="M996.575,372.521a17.165,17.165,0,0,1-6.231-6.693c-1.087-2.149-1.81-4.629-3.666-6.153-1.673-1.367-3.907-1.7-5.99-2.311-6.85-2.025-12.592-8.276-12.807-15.412-.1-3.36.944-6.713.469-10.04a11.12,11.12,0,0,0-2.175-5.176,17.816,17.816,0,0,0-1.882-2.025c-.911-.859-1.869-1.693-2.7-2.6a10.115,10.115,0,0,1-1.367-1.856,8.93,8.93,0,0,1-.749-1.725c-1.3-3.985-.117-8.712-1.55-12.742l-.078-.221c-.54-1.432-1.641-2.865-3.171-2.976s-2.839,1.159-4.3,1.725c-3.054,1.185-6.348-.833-8.894-2.891s-5.417-4.408-8.653-3.952c-2.142.306-3.835,1.764-5.808,2.52a8.145,8.145,0,0,1-1.374.4,19.305,19.305,0,0,1,37.224,7.195,19.11,19.11,0,0,1-.423,4.03c.032.091.065.176.1.267.755,1.953,1.608,3.959,2.357,5.691l3.679,3.334,3.907,3.256c5.1,4.3,13.908,11.863,18.452,16.493C994.947,344.738,996.2,360.586,996.575,372.521Z" transform="translate(-353.543 -138.749)"/><path class="t" d="M924.546,280.151c.931-1.895,1.393-4.017,2.507-5.814,1.634-2.6,4.486-4.271,7.416-5.28,7.651-2.637,23.818-6.465,28.649,0a14.094,14.094,0,0,0,3.054,3.646,22.672,22.672,0,0,0,3.314,1.491c3.08,1.445,5.046,4.6,6.094,7.813s1.361,6.667,2.129,9.981a73.4,73.4,0,0,0,4.428,12.286c2.025,4.727,4.174,9.63,8.08,12.97,5.333,4.558,6.511,11.01,11.459,16.011,5.86,5.938,5.671,15.737,2.65,23.518a6.457,6.457,0,0,0-.69,3.177,6.231,6.231,0,0,0,1.725,2.943l3.2,3.614a18.013,18.013,0,0,1-19.683-9.076c-1.087-2.149-1.81-4.623-3.672-6.153-1.667-1.367-3.907-1.693-5.984-2.3-6.85-2.031-12.592-8.289-12.807-15.425-.1-3.353.944-6.706.469-10.027a11.069,11.069,0,0,0-2.181-5.209c-1.791-2.337-4.493-3.907-5.951-6.511-2.468-4.356-.593-10.014-2.37-14.689-.547-1.432-1.641-2.865-3.171-2.976s-2.839,1.159-4.3,1.725c-3.047,1.185-6.342-.827-8.888-2.891s-5.417-4.408-8.66-3.946c-2.142.3-3.828,1.758-5.8,2.52-1.458.56-4.415,1.061-5.691-.169C917.176,288.9,923.42,282.469,924.546,280.151Z" transform="translate(-351.294 -130.809)"/><path class="e" d="M990.617,358.676c-1.094-2.149-1.81-4.623-3.672-6.146-1.667-1.367-3.907-1.7-5.99-2.311-6.843-2.025-12.586-8.282-12.807-15.418-.1-3.353.944-6.713.475-10.034a11.136,11.136,0,0,0-2.181-5.176c-1.8-2.337-4.5-3.907-5.951-6.511-2.468-4.349-.592-10.008-2.377-14.689-.54-1.426-1.641-2.858-3.164-2.976s-2.845,1.165-4.3,1.732c-3.047,1.185-6.348-.833-8.888-2.891s-5.424-4.408-8.66-3.952c-2.142.306-3.835,1.764-5.8,2.52-1.458.56-4.421,1.068-5.7-.163-2.683-2.6,3.562-9.018,4.682-11.323.931-1.9,1.393-4.017,2.513-5.814.058-.1.124-.2.189-.293a10.34,10.34,0,0,0-2.142,2.435c-1.113,1.8-1.576,3.907-2.507,5.814-1.126,2.3-7.37,8.738-4.681,11.323,1.3,1.237,4.232.729,5.691.169,1.953-.762,3.659-2.22,5.8-2.52,3.255-.462,6.12,1.888,8.66,3.946s5.86,4.076,8.894,2.891c1.458-.566,2.735-1.843,4.3-1.725s2.6,1.543,3.171,2.976c1.777,4.675-.1,10.333,2.37,14.689,1.458,2.559,4.161,4.161,5.951,6.511a11.069,11.069,0,0,1,2.181,5.209c.475,3.321-.573,6.674-.469,10.027.215,7.162,5.958,13.393,12.807,15.425,2.064.612,4.317.938,5.984,2.3,1.869,1.53,2.6,4,3.672,6.153a18.013,18.013,0,0,0,19.683,9.076l-1.51-1.706A18.208,18.208,0,0,1,990.617,358.676Z" transform="translate(-351.218 -134.202)"/><path class="e" d="M955.252,354.453c-.853,1.3-3.295,7.97-5.333,13.79-1.908-.742-3.64-5.476-3.64-5.476L956.45,348.3C957.492,349.732,956.808,352.109,955.252,354.453Z" transform="translate(-360.741 -159.696)"/><path class="s" d="M955.852,353.856c-.853,1.3-3.295,7.97-5.333,13.79-1.908-.736-3.64-5.476-3.64-5.476l10.17-14.461C958.092,349.136,957.408,351.519,955.852,353.856Z" transform="translate(-360.95 -159.49)"/><path class="u" d="M866.776,448.621l-5.639-17.782a1.66,1.66,0,0,1,1.081-2.09h0a1.667,1.667,0,0,1,2.083,1.081l5.639,17.762-.56,3.718Z" transform="translate(-331.008 -187.737)"/><path class="v" d="M861.815,429.291h0a1.667,1.667,0,0,1,2.09,1.081l5.639,17.762-.423,2.787.41.43.56-3.718L864.42,429.87a1.667,1.667,0,0,0-2.084-1.081h0a1.667,1.667,0,0,0-.866.651,2.27,2.27,0,0,1,.345-.15Z" transform="translate(-331.151 -187.751)"/><path class="w" d="M822.6,400.143l3.164-1-.462,3.047-.1.671-.925-.964Z" transform="translate(-286.831 -139.259)"/><path class="x" d="M872.42,461.886a.651.651,0,0,1,.2-.169.287.287,0,0,1,.306,0,.809.809,0,0,1,.111.176.56.56,0,0,0,.4.267l-.1.651Z" transform="translate(-334.972 -199.25)"/><path class="p" d="M861.13,441.7s11.31-.065,8.647,4.747a10.172,10.172,0,0,1-6.824,5.391Z" transform="translate(-331.033 -192.282)"/><path class="g" d="M673.375,110.05h-.488a55.691,55.691,0,0,0-46.5,25.452,55.692,55.692,0,0,0-46.5-25.452h-.488a55.344,55.344,0,0,0-54.817,55.312c0,18.107,7.931,43.8,23.394,64.941,29.463,40.284,78.406,75.528,78.406,75.528s48.944-35.238,78.4-75.528c15.47-21.141,23.394-46.834,23.394-64.941a55.344,55.344,0,0,0-54.81-55.312ZM666.388,233.4a10.971,10.971,0,0,1-10.2-7.045H644.57a3.672,3.672,0,0,1-3.457-2.5l-3.568-10.75-11.29,39.451a3.653,3.653,0,0,1-3.5,2.637h-.228a3.607,3.607,0,0,1-3.386-3.021L607.5,182.193,599,223.6a3.627,3.627,0,0,1-3.522,2.754H579.114a3.64,3.64,0,1,1,0-7.273h13.5l12.046-55.676a3.653,3.653,0,0,1,7.162.3L623.7,235.1l10.118-35.3a3.581,3.581,0,0,1,3.405-2.6h.072a3.633,3.633,0,0,1,3.451,2.5L647.2,219.1h8.842a10.913,10.913,0,1,1,10.366,14.324Z" transform="translate(-213.616 -76.572)"/></g></g></svg>