<svg xmlns="http://www.w3.org/2000/svg" xmlns:xlink="http://www.w3.org/1999/xlink" width="428.08" height="240.705" viewBox="0 0 428.08 240.705"><defs><style>.a,.c,.f,.g{fill:#9bb4ff;}.a,.h,.q{opacity:0.1;}.b,.t{fill:none;stroke-miterlimit:10;}.b{stroke:#535461;stroke-width:2px;}.d{opacity:0.25;}.e{fill:#fff;}.f{opacity:0.2;}.g{opacity:0.5;}.i{fill:#ffd037;}.j{fill:#444053;}.k{fill:#9d9cb5;}.l{fill:url(#a);}.m{opacity:0.02;}.n{fill:#efb7b9;}.o{fill:#ff6484;}.p{fill:#925978;}.r{fill:url(#b);}.s{fill:#fbbebe;}.t{stroke:#9bb4ff;}.u{fill:#65617d;}</style><linearGradient id="a" x1="0.5" y1="1" x2="0.5" gradientUnits="objectBoundingBox"><stop offset="0" stop-color="gray" stop-opacity="0.251"/><stop offset="0.54" stop-color="gray" stop-opacity="0.122"/><stop offset="1" stop-color="gray" stop-opacity="0.102"/></linearGradient><linearGradient id="b" x1="0.5" y1="1" x2="0.5" y2="0" xlink:href="#a"/></defs><path class="a" d="M323.022,176.978c-24.7-.142-48.37-6.442-71-13.418s-45.063-14.748-69.252-18.164c-15.557-2.188-33.286-2.121-45.6,5.344-11.844,7.185-15.439,19.179-17.256,30.272-1.372,8.346-2.081,17.113,2.412,24.79,3.118,5.328,8.529,9.739,12.325,14.823,13.2,17.688,4.73,40.1-8.671,58.006-6.306,8.4-13.622,16.448-18.415,25.341s-6.862,19.01-2.266,27.852c4.556,8.767,15.064,15.181,26.384,19.6,22.995,8.968,49.884,11.042,76.071,11.951,57.984,2.015,116.156-.874,174.172-3.758,21.473-1.07,43.037-2.148,64.1-5.509,11.7-1.873,23.756-4.694,32.127-10.994,10.642-8,13.007-21.17,5.518-30.693-12.55-15.98-46.266-19.211-55.181-36.469-4.911-9.5-.37-20.328,6.212-29.41,14.119-19.482,38.15-36.859,38.907-58.753.52-15.04-11.6-29.8-29.936-36.462-19.25-7.012-45.619-5.438-59.383,7.233C370.135,171.6,344.846,177.1,323.022,176.978Z" transform="translate(-84.69 -144.148)"/><g transform="translate(163.556 19.639)"><path class="b" d="M550.6,316.771s-10.831-19.159-27.149-24.68A33.4,33.4,0,0,1,506.54,279.46a55.954,55.954,0,0,1-4.99-8.96" transform="translate(-489.871 -240.42)"/><path class="c" d="M473.342,249.1c1.856,1.8,10.516,3.663,10.516,3.663s-2.124-8.582-3.981-10.384a4.687,4.687,0,1,0-6.535,6.721Z" transform="translate(-471.918 -222.563)"/><path class="c" d="M482.175,286.689c2.542.5,10.827-2.633,10.827-2.633s-6.492-6.06-9.018-6.564a4.686,4.686,0,1,0-1.809,9.2Z" transform="translate(-475.836 -244.607)"/><path class="c" d="M523.632,329.727c2.448-.846,8.013-7.724,8.013-7.724s-8.632-1.968-11.08-1.125a4.683,4.683,0,1,0,3.067,8.85Z" transform="translate(-499.477 -270.846)"/><path class="c" d="M566.331,354.008c2.554-.421,9.2-6.265,9.2-6.265s-8.175-3.4-10.733-2.979a4.684,4.684,0,1,0,1.529,9.243Z" transform="translate(-525.812 -285.439)"/><path class="c" d="M519.311,270.029c0,2.589-4.686,10.089-4.686,10.089s-4.694-7.5-4.694-10.085a4.69,4.69,0,0,1,9.381,0Z" transform="translate(-494.948 -237.296)"/><path class="c" d="M567.917,297.275c-.788,2.471-7.489,8.228-7.489,8.228s-2.231-8.559-1.458-11.018a4.691,4.691,0,0,1,8.955,2.8Z" transform="translate(-524.56 -252.973)"/><path class="c" d="M610.5,333.46c-.343,2.566-6,9.377-6,9.377s-3.646-8.059-3.3-10.624a4.691,4.691,0,0,1,9.3,1.247Z" transform="translate(-550.233 -275.386)"/><path class="d" d="M473.342,249.1c1.856,1.8,10.516,3.663,10.516,3.663s-2.124-8.582-3.981-10.384a4.687,4.687,0,1,0-6.535,6.721Z" transform="translate(-471.918 -222.563)"/><path class="d" d="M482.175,286.689c2.542.5,10.827-2.633,10.827-2.633s-6.492-6.06-9.018-6.564a4.686,4.686,0,1,0-1.809,9.2Z" transform="translate(-475.836 -244.607)"/><path class="d" d="M523.632,329.727c2.448-.846,8.013-7.724,8.013-7.724s-8.632-1.968-11.08-1.125a4.683,4.683,0,1,0,3.067,8.85Z" transform="translate(-499.477 -270.846)"/><path class="d" d="M566.331,354.008c2.554-.421,9.2-6.265,9.2-6.265s-8.175-3.4-10.733-2.979a4.684,4.684,0,1,0,1.529,9.243Z" transform="translate(-525.812 -285.439)"/><path class="d" d="M519.311,270.029c0,2.589-4.686,10.089-4.686,10.089s-4.694-7.5-4.694-10.085a4.69,4.69,0,0,1,9.381,0Z" transform="translate(-494.948 -237.296)"/><path class="d" d="M567.917,297.275c-.788,2.471-7.489,8.228-7.489,8.228s-2.231-8.559-1.458-11.018a4.691,4.691,0,0,1,8.955,2.8Z" transform="translate(-524.56 -252.973)"/><path class="d" d="M610.5,333.46c-.343,2.566-6,9.377-6,9.377s-3.646-8.059-3.3-10.624a4.691,4.691,0,0,1,9.3,1.247Z" transform="translate(-550.233 -275.386)"/><path class="b" d="M584.371,291.339s-2.128-21.9-14.8-33.55A33.322,33.322,0,0,1,559.232,239.4a55.88,55.88,0,0,1-.922-10.211" transform="translate(-524.258 -215.365)"/><path class="c" d="M537.634,200.492c.966,2.4,8.127,7.606,8.127,7.606s1.541-8.708.572-11.108a4.689,4.689,0,0,0-8.7,3.5Z" transform="translate(-511.525 -194.057)"/><path class="c" d="M530.458,238.409c2.12,1.487,10.961,1.967,10.961,1.967s-3.445-8.145-5.561-9.633a4.687,4.687,0,1,0-5.4,7.661Z" transform="translate(-506.177 -215.79)"/><path class="c" d="M550.969,294.518c2.582.216,10.461-3.825,10.461-3.825s-7.095-5.293-9.676-5.509a4.684,4.684,0,1,0-.788,9.334Z" transform="translate(-517.205 -249.315)"/><path class="c" d="M579.8,333.911c2.507.649,10.957-2,10.957-2s-6.1-6.414-8.6-7.083a4.684,4.684,0,1,0-2.365,9.05Z" transform="translate(-535.006 -273.236)"/><path class="c" d="M571.167,238.249c-1.048,2.361-8.38,7.327-8.38,7.327s-1.25-8.751-.2-11.116a4.69,4.69,0,0,1,8.581,3.789Z" transform="translate(-526.595 -216.869)"/><path class="c" d="M601.463,282.816c-1.711,1.94-10.193,4.486-10.193,4.486s1.431-8.724,3.153-10.668a4.689,4.689,0,0,1,7.051,6.182Z" transform="translate(-544.227 -243.174)"/><path class="c" d="M627.905,333.352c-1.356,2.2-9.286,6.146-9.286,6.146s-.067-8.842,1.289-11.049a4.692,4.692,0,0,1,8,4.9Z" transform="translate(-560.796 -274.279)"/></g><path class="a" d="M829.769,737.157c1.163,2.361-7.063,4.9-17.252,5.631-9.129.657-16.633-.413-17.583-2.333s4.864-4.25,13.8-5.3C818.7,733.989,828.607,734.82,829.769,737.157Z" transform="translate(-503.999 -502.277)"/><path class="e" d="M218.75,211.118l125.569-44.4V320.1L218.75,317.489Z" transform="translate(-132.529 -101.115)"/><path class="f" d="M218.75,211.118l125.569-44.4V320.1L218.75,317.489Z" transform="translate(-132.529 -101.115)"/><path class="e" d="M0,304.879,71.637,279.55V385.921H0Z" transform="translate(0 -169.547)"/><path class="f" d="M0,304.879,71.637,279.55V385.921H0Z" transform="translate(0 -169.547)"/><path class="e" d="M537.33,166.72l125.565,44.4V317.489L537.33,320.1Z" transform="translate(-325.541 -101.115)"/><path class="g" d="M537.33,166.72l125.565,44.4V317.489L537.33,320.1Z" transform="translate(-325.541 -101.115)"/><path class="e" d="M966.44,305.2,893.9,279.55V385.921h72.54Z" transform="translate(-541.568 -169.547)"/><path class="g" d="M966.44,305.2,893.9,279.55V385.921h72.54Z" transform="translate(-541.568 -169.547)"/><path class="e" d="M143.212,515.27c-.508,0-.922.693-.922,1.547v19.25a11.4,11.4,0,0,1-1.3,5.458,4.145,4.145,0,0,1-3.291,2.361h-.788c-1.182,0-2.341-.881-3.248-2.436a11.113,11.113,0,0,1-1.431-5.5V511.115a7.467,7.467,0,0,1,1.025-3.911,2.991,2.991,0,0,1,2.428-1.613,2.866,2.866,0,0,1,2.365,1.605,7.793,7.793,0,0,1,.97,3.935v23.193c0,1.692-.788,3.187-1.719,3.187-.788,0-1.671-1.275-1.671-3.187V521.078c0-.85-.414-1.546-.922-1.546s-.926.7-.926,1.546v13.229c0,3.518,1.514,6.17,3.52,6.17a3.019,3.019,0,0,0,2.53-1.712,8.924,8.924,0,0,0,1.037-4.458V511.115A12.017,12.017,0,0,0,139.322,505a3.943,3.943,0,0,0-7.359,0,11.974,11.974,0,0,0-1.537,6.131v24.834a15.565,15.565,0,0,0,1.931,7.724c1.206,1.991,2.838,3.148,4.509,3.148h.808c1.636,0,3.275-1.157,4.5-3.18a13.012,13.012,0,0,0,1.415-3.423,16.5,16.5,0,0,0,.528-4.171V516.778c0-.854-.394-1.546-.918-1.546Z" transform="translate(-101.467 -361.471)"/><path class="c" d="M600.679,643.92s2.337,3.054-1.08,7.661-6.24,8.5-5.1,11.368c0,0,5.156-8.559,9.349-8.657S605.291,649.067,600.679,643.92Z" transform="translate(-382.473 -447.26)"/><path class="h" d="M600.889,643.92a3.849,3.849,0,0,1,.477.96c4.091,4.8,6.271,9.279,2.337,9.393-3.666.106-8.061,6.646-9.113,8.3a3.255,3.255,0,0,0,.122.394s5.155-8.559,9.349-8.657S605.5,649.067,600.889,643.92Z" transform="translate(-382.682 -447.26)"/><path class="i" d="M620.76,652.749c0,1.074-.122,1.944-.272,1.944s-.268-.87-.268-1.944.15-.57.3-.57S620.76,651.674,620.76,652.749Z" transform="translate(-398.21 -452.197)"/><path class="i" d="M622.539,655.9c-.942.512-1.766.822-1.837.693s.635-.653,1.577-1.18.571-.138.642,0S623.485,655.389,622.539,655.9Z" transform="translate(-398.5 -454.071)"/><path class="c" d="M571.175,643.92s-2.337,3.054,1.08,7.661,6.232,8.5,5.092,11.368c0,0-5.152-8.559-9.349-8.657S566.56,649.067,571.175,643.92Z" transform="translate(-365.318 -447.26)"/><path class="h" d="M571.175,643.92a3.857,3.857,0,0,0-.477.96c-4.1,4.8-6.275,9.279-2.337,9.393,3.662.106,8.06,6.646,9.113,8.3a3.268,3.268,0,0,1-.126.393s-5.152-8.558-9.349-8.657S566.56,649.067,571.175,643.92Z" transform="translate(-365.318 -447.26)"/><path class="i" d="M568.22,652.749c0,1.074.118,1.944.268,1.944s.272-.87.272-1.944-.154-.57-.3-.57S568.22,651.674,568.22,652.749Z" transform="translate(-366.706 -452.197)"/><path class="i" d="M563.544,655.9c.946.512,1.77.822,1.841.693s-.635-.653-1.577-1.18-.571-.138-.642,0S562.586,655.389,563.544,655.9Z" transform="translate(-363.524 -454.071)"/><ellipse class="a" cx="24.437" cy="3.742" rx="24.437" ry="3.742" transform="translate(187.592 231.547)"/><path class="j" d="M588.141,679.628l-.118.952-.166,1.346-.067.559-.166,1.35-.071.559-.162,1.346-1.872,15.307c-.166,1.365-2.4,2.432-5.1,2.432H570.7c-2.7,0-4.931-1.066-5.1-2.432l-1.872-15.307-.166-1.346-.067-.559-.166-1.35-.071-.559-.162-1.346-.118-.952c-.095-.787,1.115-1.428,2.645-1.428H585.5C587.029,678.2,588.235,678.853,588.141,679.628Z" transform="translate(-363.53 -468.051)"/><path class="k" d="M531.252,540.1l-.166,1.346h-24.6l-.162-1.346Z" transform="translate(-306.759 -327.57)"/><path class="k" d="M531.377,544.95l-.165,1.346H507.086l-.165-1.346Z" transform="translate(-307.117 -330.512)"/><path class="k" d="M531.5,549.8l-.162,1.346H507.676l-.166-1.346Z" transform="translate(-307.474 -333.454)"/><path class="e" d="M423.724,456.395l-3.764,4.993a.288.288,0,0,1-.292.122l-3.89-.929a.417.417,0,0,1-.268-.354l-.694-5.143a.55.55,0,0,1,.091-.393l3.756-4.986a1.073,1.073,0,0,0-.087-1.342,4.067,4.067,0,0,0-2.664-1.181.751.751,0,0,0-.166,0,7.462,7.462,0,0,0-5.029,3.29,13.223,13.223,0,0,0-1.884,11.577,2.188,2.188,0,0,1-.229,2.184c-.623.822-16.732,20.855-16.732,20.855-1.51,1.72-1.4,4.9,0,6.749a3.348,3.348,0,0,0,2.621,1.417,2.933,2.933,0,0,0,2.479-1.452s15.033-21.17,15.766-22.134a1.183,1.183,0,0,1,.93-.563,1.29,1.29,0,0,1,.717.264,4.736,4.736,0,0,0,2.716.822,8.058,8.058,0,0,0,6.05-3.282,11.864,11.864,0,0,0,2.479-6.658,7.31,7.31,0,0,0-.895-3.789.58.58,0,0,0-1.013-.087Zm-28.379,33.034a1,1,0,0,1-1.667,0,1.965,1.965,0,0,1,0-2.2,1,1,0,0,1,1.667,0,1.965,1.965,0,0,1,0,2.2Z" transform="translate(-259.205 -327.936)"/><path class="e" d="M726.33,462.2c-1.04-12.01-9.2-21.367-19.116-21.367-6.566,0-12.349,4.088-15.821,10.333a7.557,7.557,0,0,0-3.449-.846c-5.013,0-9.065,5.509-9.156,11.718-5.124,2.03-8.5,8.264-8.5,14.8,0,8.016,5.219,15.091,11.651,15.091h42.348c6.436,0,11.655-7.083,11.655-15.091C735.944,469.7,731.79,463.409,726.33,462.2Zm-9.566-2.755-17.142,21.446h0a2.147,2.147,0,0,1-1.49.878,2.1,2.1,0,0,1-1.5-.909l-7.193-8.952a.75.75,0,0,1,0-.909l2.282-2.841a.43.43,0,0,1,.717,0l5.7,7.083,15.64-19.624a.473.473,0,0,1,.359-.193.434.434,0,0,1,.359.193l2.243,2.892a.735.735,0,0,1,.028.925Z" transform="translate(-428.545 -324.086)"/><ellipse class="e" cx="3.898" cy="5.19" rx="3.898" ry="5.19" transform="translate(397.695 146.748)"/><path class="e" d="M1029.911,536.092a4.135,4.135,0,0,1-1.265-.2l-3.847,5.222a.255.255,0,0,0,0,.3l6.113,8.657a1.753,1.753,0,0,1,0,1.991.962.962,0,0,1-.749.393.951.951,0,0,1-.745-.393l-6.089-8.657a.142.142,0,0,0-.237,0l-1.486,2.015c-1.242,1.676-2.889,1.424-4.663,1.436a6.032,6.032,0,0,1-4.757-2.7l-1.427-1.936a.142.142,0,0,0-.236,0l-6.09,8.657a.962.962,0,0,1-.749.394.951.951,0,0,1-.745-.394,1.753,1.753,0,0,1,0-1.991l6.113-8.657a.3.3,0,0,0,0-.3l-8.746-11.852c-.106-.142-.276-.043-.276.149v23.72c0,1.9,1.182,3.463,2.6,3.463l28.584,1.18c1.431,0,2.6-1.574,2.6-3.463V533.873A4.859,4.859,0,0,1,1029.911,536.092Z" transform="translate(-628.318 -376.961)"/><path class="e" d="M1026.019,523.113a9.145,9.145,0,0,1,.666-3.463l-22.557-1.18a2.2,2.2,0,0,0-1.608.759l12.743,17.275a3.943,3.943,0,0,0,3.173,1.771c1.182,0,2.333.555,3.177-.59l6.535-8.862A8.166,8.166,0,0,1,1026.019,523.113Z" transform="translate(-629.826 -371.175)"/><path class="c" d="M1136.5,688.371s-4.608-.275-4.064,2.943a.787.787,0,0,0,.394.83s0-.24.473-.157a2.219,2.219,0,0,0,.5.024,1.068,1.068,0,0,0,.611-.252h0a3.657,3.657,0,0,0,1.8-2.648s.374-.46.359-.578l-.788.331a1.4,1.4,0,0,1,.055,1.027s-.024-1.007-.173-.984c-.031,0-.394.2-.394.2a2.286,2.286,0,0,1,.114,1.68s.13-1.18-.256-1.609l-.548.319a2.393,2.393,0,0,1,.173,1.826,3.4,3.4,0,0,0-.288-1.751l-.5.393a2.352,2.352,0,0,1,.2,1.676s-.039-1.468-.3-1.574a3.048,3.048,0,0,0-.5.539s.343.72.13,1.1c0,0-.13-.976-.236-.98a3.193,3.193,0,0,0-.477,1.09,2.363,2.363,0,0,1,.375-1.153,1.3,1.3,0,0,0-.662.342s.067-.456.788-.5a3.07,3.07,0,0,1,.449-.519,2.819,2.819,0,0,0-1.119.13,1.288,1.288,0,0,1,1.25-.236l.489-.394a4.068,4.068,0,0,0-1.309,0,1.548,1.548,0,0,1,1.439-.1l.536-.319a4.882,4.882,0,0,0-1.249-.11,1.918,1.918,0,0,1,1.4.024l.394-.169s-.575-.114-.741-.13-.177-.067-.177-.067a2,2,0,0,1,1.076.122A4.91,4.91,0,0,0,1136.5,688.371Z" transform="translate(-708.512 -474.216)"/><ellipse class="a" cx="3.26" cy="0.551" rx="3.26" ry="0.551" transform="translate(421.561 217.657)"/><path class="c" d="M955.161,688.709s-5.557-.334-4.9,3.542a.948.948,0,0,0,.493,1s0-.287.572-.189a2.473,2.473,0,0,0,.6.028,1.255,1.255,0,0,0,.741-.3h0a4.361,4.361,0,0,0,2.168-3.2s.453-.555.433-.7l-.938.393a1.677,1.677,0,0,1,.067,1.236s-.028-1.212-.209-1.18c-.036,0-.489.232-.489.232a2.779,2.779,0,0,1,.138,2.034s.158-1.452-.311-1.968l-.658.393a2.929,2.929,0,0,1,.209,2.211,4.163,4.163,0,0,0-.347-2.117l-.6.468a2.81,2.81,0,0,1,.236,2.019s-.047-1.771-.366-1.9a3.621,3.621,0,0,0-.6.649s.394.87.158,1.33c0,0-.158-1.18-.288-1.18a3.934,3.934,0,0,0-.575,1.318,2.855,2.855,0,0,1,.449-1.393,1.577,1.577,0,0,0-.788.393s.083-.555.93-.6a3.631,3.631,0,0,1,.544-.63,3.4,3.4,0,0,0-1.352.157,1.519,1.519,0,0,1,1.506-.287l.591-.48a4.936,4.936,0,0,0-1.577,0,1.927,1.927,0,0,1,1.738-.126l.642-.394a5.786,5.786,0,0,0-1.509-.13,2.31,2.31,0,0,1,1.7.024l.457-.2s-.69-.134-.895-.157-.213-.079-.213-.079a2.416,2.416,0,0,1,1.3.146A5.593,5.593,0,0,0,955.161,688.709Z" transform="translate(-598.131 -474.42)"/><ellipse class="a" cx="3.934" cy="0.665" rx="3.934" ry="0.665" transform="translate(349.269 218.518)"/><path class="l" d="M828.438,551.566s.453-.437.3-.732a.68.68,0,0,1,0-.586,29.443,29.443,0,0,0-1.4-4.391,3.059,3.059,0,0,1-.564-.992.514.514,0,0,0,.055-.252,2.007,2.007,0,0,0-.394-1.114,2.728,2.728,0,0,1-.469-1.476,1.653,1.653,0,0,1,0-.2h0a1.97,1.97,0,0,0-1.364-1.208c.13-.846.307-1.692.363-2.542.177-2.664-.816-5.249-1.793-7.744a8.148,8.148,0,0,0-.855-1.759,5.125,5.125,0,0,0-3.681-2.007,3.605,3.605,0,0,0-1.577.154,4.892,4.892,0,0,0-1.36.909c-.422.354-.844.716-1.234,1.1l-.047.047-.138.145-.055.055-.13.146-.047.051c-.055.067-.114.134-.17.2h0c-.051.067-.1.13-.15.2l-.047.067-.1.146-.047.075c-.035.051-.063.1-.094.153l-.043.071c-.039.075-.083.15-.122.228l-.142.315v.043l-.083.209c-.106.252-.209.5-.339.744h0l-.024.039-.284.342a2.66,2.66,0,0,0-.323.551l-.027.063a.253.253,0,0,1-.032.087l-.027.071a.81.81,0,0,1-.028.091v.075l-.024.087v.079a.14.14,0,0,1-.02.087v.567a.937.937,0,0,0,0,.106.415.415,0,0,0,0,.071.8.8,0,0,0,0,.1v.169a.457.457,0,0,0,0,.071l.023.1v.063l.036.11a.074.074,0,0,0,.02.051,1.065,1.065,0,0,1,.063.161,4.233,4.233,0,0,0,.442.748c.114.157.233.311.351.468l.169.236a4.29,4.29,0,0,1,.311.492,3.418,3.418,0,0,1-.122,3.392l-.142.216a1.151,1.151,0,0,0-.162.393.841.841,0,0,0,.225.673l-.351.09c-.288.079-.485.142-.485.142a4.07,4.07,0,0,0-.717,0,1.971,1.971,0,0,0-.863.551s-1.506.181-2-.256a5.764,5.764,0,0,0-2.219-.586,3.656,3.656,0,0,0-1.017-1.247c-.528-.3-1.805-.842-1.845-1.133a2.67,2.67,0,0,0-.489-.842,4.358,4.358,0,0,0-.788-.094l-.083-.142-1.052-1.814s-1.32-1.539-2.034-1.684,1.005,1.633,1.088,1.716a1.133,1.133,0,0,0-1.577.26c-.56.622.926,2.082,1.849,2.888l.15.13a1.851,1.851,0,0,0,.035.24c.414,2.16,2.708,4.029,2.708,4.029s.264,1.208,1.131,1.5a46.346,46.346,0,0,0,6.326,2.243,3.278,3.278,0,0,0,.449,2.81s.189,2.526-.225,2.857-.394,3.99-.394,3.99-1.577,6.371,0,7.724a1.229,1.229,0,0,0,.335.2,2.993,2.993,0,0,0,.039.307,3.178,3.178,0,0,1-.075,1.574c-.394.622.13,2.306.13,2.306s-1.521,8.606-.843,11.644a34.774,34.774,0,0,1,.6,6.886,7.482,7.482,0,0,0,.942,4.285,4.426,4.426,0,0,1,.224,1.18,7.039,7.039,0,0,0,.6,2.231c.264.512.788,2.676.339,3.258s.489,6.961.489,6.961-.753,1.968,0,3l.024.027a5.13,5.13,0,0,1-1.32-.189c-.844-.283-.213.787.788,1.519-.438.992-1.037,2.322-1.238,2.754a11.082,11.082,0,0,1-3.611.154c-1.391-.327.6,1.9,2.483,2.31a18.046,18.046,0,0,0,4.028.291l1.214-1.338a15.448,15.448,0,0,0,2.96.11l-.106,1.243h.713v-1.291c.449-.043.915-.1,1.4-.189,0,0,.028-1.362-.059-2.648l.438.039.067-.712,1.549.279,1.391-11.411s.154-4.246.493-6.626-.717-10.365-.717-10.365-.075-.393-.15-1.133,0-5.056,0-5.056a15.7,15.7,0,0,0,.453-2.562,4.148,4.148,0,0,1,.035-1.208c2.365-4.812-.544-9.161-1.557-10.451a.31.31,0,0,0,.1-.208.194.194,0,0,0,0-.083,8.789,8.789,0,0,0-.568-1.18l.591-.752c.2.3.351.516.351.516a7.079,7.079,0,0,1,1.281-1.967,63.194,63.194,0,0,0,3.725-5.674s.717-.48.339-.881S828.438,551.566,828.438,551.566Zm-9.483,40.5a1.014,1.014,0,0,0-.268-.437s-.11-.787-.15-1.8c.225.787.453,1.358.453,1.358Zm1.774,18.719v-.208h.055Zm.465-52.091v-.047a.582.582,0,0,1,.244-.523.276.276,0,0,0,.13-.256.93.93,0,0,0-.181-.456c.075.055.307.181.465-.275a.7.7,0,0,0,.036-.22,1.845,1.845,0,0,0-.445-1.031l1.7-3.581a4.565,4.565,0,0,0,.567.13h0c-.445,1.377-.812,3.018-.812,3.018l-1.317,2.892a.554.554,0,0,1,.229.165Z" transform="translate(-506.275 -376.069)"/><path class="j" d="M835.934,734.7a10.1,10.1,0,0,1-3.287-.1c-1.076-.37.331,1.574,1.786,2.05a13.721,13.721,0,0,0,3.153.535l1.707-1.605,1.813.142-.315,1.775.564.051.217-2.322Z" transform="translate(-526.679 -502.229)"/><path class="h" d="M835.934,734.7a10.1,10.1,0,0,1-3.287-.1c-1.076-.37.331,1.574,1.786,2.05a13.721,13.721,0,0,0,3.153.535l1.707-1.605,1.813.142-.315,1.775.564.051.217-2.322Z" transform="translate(-526.679 -502.229)"/><path class="j" d="M826.63,745.23a12.342,12.342,0,0,1-4,.252c-1.344-.327.583,1.889,2.4,2.286a16.83,16.83,0,0,0,3.89.291l1.892-2.141,2.215-.035-.181,2.192h.694V745.23Z" transform="translate(-520.567 -508.705)"/><path class="h" d="M826.63,745.23a12.342,12.342,0,0,1-4,.252c-1.344-.327.583,1.889,2.4,2.286a16.83,16.83,0,0,0,3.89.291l1.892-2.141,2.215-.035-.181,2.192h.694V745.23Z" transform="translate(-520.567 -508.705)"/><path class="j" d="M848.2,617.1s4.545,5.045,1.821,10.743a4.248,4.248,0,0,0-.039,1.2,16.364,16.364,0,0,1-.434,2.542s-.075,4.281,0,5.009.146,1.122.146,1.122,1.017,7.913.69,10.274-.473,6.571-.473,6.571l-1.344,11.325-6.981-1.306,3.153-15.539.11-2.755s-1.309-3.372-.729-5.08-.146-23.449-.146-23.449Z" transform="translate(-532.327 -430.994)"/><path class="m" d="M848.2,617.1s4.545,5.045,1.821,10.743a4.248,4.248,0,0,0-.039,1.2,16.364,16.364,0,0,1-.434,2.542s-.075,4.281,0,5.009.146,1.122.146,1.122,1.017,7.913.69,10.274-.473,6.571-.473,6.571l-1.344,11.325-6.981-1.306,3.153-15.539.11-2.755s-1.309-3.372-.729-5.08-.146-23.449-.146-23.449Z" transform="translate(-532.327 -430.994)"/><path class="j" d="M836.685,641.808c-.788,1.523-.292,5.226-.292,5.226,1.052.909.473,8.822.473,8.822s.725,7.8,1.182,8.712.394,4.643.394,4.643a13.457,13.457,0,0,1-8.837-1.125s1.711-3.884,1.746-4.065c.02-.1.248.173.315.256l-.315-.437c-.729-1.015,0-2.975,0-2.975s-.911-6.3-.473-6.9-.071-2.723-.327-3.231a7.1,7.1,0,0,1-.583-2.215,4.5,4.5,0,0,0-.217-1.161,7.576,7.576,0,0,1-.91-4.246,35.031,35.031,0,0,0-.58-6.823c-.654-3.014.816-11.545.816-11.545s-.489-1.668-.126-2.286a3.228,3.228,0,0,0,.071-1.574c-.087-.787-.252-1.519-.252-1.519l9.929-1.747c.209.346.394.681.575,1,3.283,6.056,1.068,8.3,1.068,8.3l-2.109,6.461S837.485,640.282,836.685,641.808Z" transform="translate(-524.151 -431.309)"/><path class="n" d="M803.893,552.232l-1.419,1.181s-.28-.22-.65-.555c-.891-.787-2.326-2.247-1.786-2.861a1.073,1.073,0,0,1,1.521-.256c-.079-.087-1.726-1.846-1.048-1.7s1.971,1.668,1.971,1.668l1.017,1.8Z" transform="translate(-507.081 -389.103)"/><path class="n" d="M798.661,464.38l-1.671.508,1.269,2.211,1.454-1.885Z" transform="translate(-482.855 -281.646)"/><ellipse class="n" cx="4.761" cy="4.753" rx="4.761" ry="4.753" transform="translate(307.119 152.426)"/><path class="n" d="M839.887,545.885s4.336,6.859.221,7.441,5.518,4.753,5.518,4.753l3.6-3.628s-3.744-6.461-3.153-8.928S839.887,545.885,839.887,545.885Z" transform="translate(-530.81 -386.97)"/><path class="h" d="M840.362,618.623a22.322,22.322,0,0,1-2.928.681s-5.361,2.361-7.312,1.574c-.087-.787-.252-1.519-.252-1.519l9.905-1.739C840,617.966,840.189,618.3,840.362,618.623Z" transform="translate(-525.226 -431.309)"/><path class="o" d="M844.079,567.79l-.969,2-1.092,2.251-.158.323-1.3,2.8-1.647,3.542s.583.689.394,1.236-.438.287-.469.256c.028.043.394.516.067.724a.688.688,0,0,0-.217.689,25.344,25.344,0,0,1,1.6,3.014c.256.8-4.071,1.488-4.071,1.488s-6.145,2.723-7.674,1.377,0-7.657,0-7.657,0-3.628.394-3.955.217-2.833.217-2.833c-1.052-1.924-.327-3.014-.327-3.014l-.292-4.935s.473-.508.836-.543a3.43,3.43,0,0,1,.694,0s.189-.067.469-.142a3.993,3.993,0,0,1,1.892-.224c.508.256,3.784-.393,3.784-.393a40.317,40.317,0,0,1,4.253-.394,4.344,4.344,0,0,1,1.443.157,1.931,1.931,0,0,1,1.391,1.224,2.527,2.527,0,0,0,.437,1.668C844.327,567.392,844.079,567.79,844.079,567.79Z" transform="translate(-524.012 -398.419)"/><path class="h" d="M806.806,557.583l-1.419,1.18s-.28-.22-.65-.555c-.114-1.224.93-1.385,1.667-1.354Z" transform="translate(-509.994 -394.453)"/><path class="o" d="M815.34,561.359l-.619.035s-1.454.181-1.927-.256a5.363,5.363,0,0,0-2.144-.578,3.615,3.615,0,0,0-.981-1.236c-.509-.291-1.746-.834-1.782-1.125a2.62,2.62,0,0,0-.473-.834s-2.728-.653-2.326,1.487a8.367,8.367,0,0,0,2.617,3.994s.256,1.18,1.092,1.487,6.251,2.833,7.126,2.18S815.34,561.359,815.34,561.359Z" transform="translate(-510.188 -394.708)"/><path class="h" d="M845.352,566.46a2.527,2.527,0,0,1-.437-1.668,1.93,1.93,0,0,0-1.392-1.224,3.724,3.724,0,0,0-.705-.138,1.93,1.93,0,0,1,1.372,1.216,2.5,2.5,0,0,0,.437,1.669c.579.944.327,1.346.327,1.346l-.97,2-1.1,2.259-.154.323-1.3,2.8-1.648,3.542s.579.689.394,1.236-.434.287-.469.256c.032.043.394.516.071.724a.7.7,0,0,0-.221.689,24.787,24.787,0,0,1,1.6,3.014c.252.8-4.072,1.487-4.072,1.487s-4.269,1.889-6.575,1.743c1.971.767,7.3-1.6,7.3-1.6s4.336-.689,4.072-1.487a26.58,26.58,0,0,0-1.6-3.014.688.688,0,0,1,.217-.689c.315-.209-.039-.681-.067-.724.031.031.3.252.469-.256s-.394-1.236-.394-1.236l1.648-3.542,1.3-2.8.158-.323,1.092-2.251.97-2S845.935,567.4,845.352,566.46Z" transform="translate(-525.62 -398.443)"/><path class="o" d="M860.613,573.19l.654.543a2.992,2.992,0,0,0,.548.984,29.868,29.868,0,0,1,1.344,4.352.7.7,0,0,0,0,.582c.146.291-.292.728-.292.728s-.217-.075.146.327-.327.87-.327.87a65.118,65.118,0,0,1-3.6,5.627,7.288,7.288,0,0,0-1.238,1.968s-1.293-2.03-1.6-2.07l1.273-2.869s.871-3.99,1.525-4.722-.327-3.231-.327-3.231Z" transform="translate(-541.209 -404.363)"/><path class="h" d="M847.945,574.66a2.673,2.673,0,0,1-2.365.7,2.053,2.053,0,0,1-.375-.055c-.185-.035-.37-.079-.552-.13a5.756,5.756,0,0,1-1.805-.885,1.135,1.135,0,0,0-.394-.232.852.852,0,0,0-.859.46c-.185.3-.272.641-.461.937a2.165,2.165,0,0,1-1.785.874,6.314,6.314,0,0,1-2.026-.393,6.011,6.011,0,0,0,1.3-2.152,5.2,5.2,0,0,0,.1-1.621c-.158-2.57-1.052-5.277-3.153-6.772a2.355,2.355,0,0,1-.922-.956,3.992,3.992,0,0,1,1.892-.224c.508.256,3.784-.393,3.784-.393a40.342,40.342,0,0,1,4.253-.393,4.343,4.343,0,0,1,1.443.157,9.036,9.036,0,0,0-.118,3.25,7.394,7.394,0,0,0,.717,1.912c.189.358.394.716.587,1.074a7.882,7.882,0,0,1,1.182,3.1,2.393,2.393,0,0,1-.445,1.743Z" transform="translate(-528.122 -398.431)"/><path class="h" d="M847.135,604.775a2.512,2.512,0,0,1,.851-.075,1.578,1.578,0,0,1,.639.37h-1.868a2.5,2.5,0,0,1-1.577-.311C845.5,604.433,846.662,604.83,847.135,604.775Z" transform="translate(-534.502 -423.43)"/><path class="p" d="M832.882,533.828a2.805,2.805,0,0,0-.323,2.731c.3.7.875,1.251,1.23,1.928a3.478,3.478,0,0,1-.118,3.365,1.61,1.61,0,0,0-.292.6c-.087.555.489.952.946,1.275,2.1,1.5,2.992,4.2,3.153,6.772a5.089,5.089,0,0,1-.1,1.621,5.974,5.974,0,0,1-1.3,2.152,6.412,6.412,0,0,0,2.026.393,2.181,2.181,0,0,0,1.786-.878c.189-.291.276-.638.461-.937a.848.848,0,0,1,.859-.46,1.183,1.183,0,0,1,.394.232,5.713,5.713,0,0,0,2.731,1.07,2.672,2.672,0,0,0,2.365-.7,2.413,2.413,0,0,0,.445-1.755c-.189-2.2-2.053-3.935-2.483-6.091-.351-1.751.28-3.541.394-5.32.173-2.636-.788-5.206-1.73-7.673a8.546,8.546,0,0,0-.828-1.747,4.906,4.906,0,0,0-3.547-1.968,3.369,3.369,0,0,0-1.533.154,4.707,4.707,0,0,0-1.317.9,9.066,9.066,0,0,0-2.365,2.668c-.213.441-.351.913-.587,1.338" transform="translate(-526.725 -377.207)"/><g class="q" transform="translate(305.614 153.186)"><path d="M835.024,535.915c.233-.429.394-.9.583-1.338a5.513,5.513,0,0,1,.757-1.137,6.4,6.4,0,0,0-1.336,1.755c-.205.429-.343.885-.568,1.3l.288-.244a3.046,3.046,0,0,0-.2.315A3.386,3.386,0,0,0,835.024,535.915Z" transform="translate(-833.621 -533.44)"/><path d="M857.977,589.079A5.74,5.74,0,0,1,855.246,588a1.328,1.328,0,0,0-.394-.232.863.863,0,0,0-.859.464,1.8,1.8,0,0,0-.1.193.6.6,0,0,1,.394-.035,1.184,1.184,0,0,1,.394.232,5.714,5.714,0,0,0,2.732,1.07,2.672,2.672,0,0,0,2.365-.7,1.572,1.572,0,0,0,.181-.271A3.043,3.043,0,0,1,857.977,589.079Z" transform="translate(-845.393 -566.39)"/><path d="M838.669,561.919a6.406,6.406,0,0,1-2.022-.393,6.04,6.04,0,0,0,1.3-2.156,5.057,5.057,0,0,0,.1-1.617c-.158-2.57-1.048-5.281-3.153-6.772-.457-.327-1.029-.724-.946-1.279a1.748,1.748,0,0,1,.3-.6,3.47,3.47,0,0,0,.118-3.361c-.355-.677-.93-1.228-1.234-1.928a2.833,2.833,0,0,1,.126-2.42,3.8,3.8,0,0,1-.319.3,3.481,3.481,0,0,1-.264.323,2.809,2.809,0,0,0-.122,2.416c.3.7.875,1.251,1.23,1.928a3.478,3.478,0,0,1-.118,3.365,1.612,1.612,0,0,0-.292.6c-.087.555.489.952.946,1.275,2.1,1.5,2.992,4.2,3.153,6.772a5.082,5.082,0,0,1-.1,1.621,5.974,5.974,0,0,1-1.3,2.152,6.41,6.41,0,0,0,2.026.393,2.181,2.181,0,0,0,1.786-.878c.024-.039.047-.079.067-.118A2.479,2.479,0,0,1,838.669,561.919Z" transform="translate(-832.332 -538.261)"/></g><path class="r" d="M94.642,633.194a5.568,5.568,0,0,1-2.294-.838l-.071-.051a.759.759,0,0,0,.118-.271,1.329,1.329,0,0,1-.15-.606,1.391,1.391,0,0,0-.118-.582v-.984a1.808,1.808,0,0,1-.331-1.129c-.028-.815-.059-4.812-.059-4.812a1.871,1.871,0,0,1-.028-.638c.028-.464.028-.637.028-.637a1.752,1.752,0,0,1-.087-.842,1.081,1.081,0,0,0-.213-.752l.449-2.2s.248-7.6-.477-9.9h0v-.027c.059-1.476-.84-3.935-.331-5.651s.572-2.086.572-2.086-2.247-5.623-2.814-6.957a17.255,17.255,0,0,0-1.182-2.5l-.106-.142-.059-.071a1.522,1.522,0,0,0,.217-.669c.032-.393-.028-.889.276-1.18a2.433,2.433,0,0,1,.371-.248A1.471,1.471,0,0,0,89.006,588a2.386,2.386,0,0,0-.6-1.153,3.539,3.539,0,0,0,.051-.582,3.24,3.24,0,0,0-1.029-2.361h0v-.181a1.856,1.856,0,0,0-.359-1.118l.083.059-.142-.122a1.05,1.05,0,0,0-.233-.181,4.4,4.4,0,0,0-4.572-.236,2.505,2.505,0,0,0-.891.787,9.016,9.016,0,0,0-.6,2.479,7.873,7.873,0,0,1-1.249,2.113,3.088,3.088,0,0,0-.67,2.294c.126.582.536,1.1.528,1.692a1.335,1.335,0,0,1-1.182,1.243h-.177a4.341,4.341,0,0,0,1.931.614.818.818,0,0,1-.043.161c-.536,2.078-1.029,4.722-1.029,4.722a12.788,12.788,0,0,1-.359,4.753,26.181,26.181,0,0,0-.6,6.379s1.916-.988,2.038-.35,0,.811,0,.811a9.047,9.047,0,0,0,.851.393v.256l-.087,1.141a1.261,1.261,0,0,0,.106.693,2.724,2.724,0,0,1,0,1.18s-.142.087,0,.5a1.678,1.678,0,0,1-.11.984s-.169,2.172-.2,2.636a9.151,9.151,0,0,1-.6,1.767s.512.638,0,.728-.568.866-.568.866-.6.5-.6.669a13.711,13.711,0,0,0-3.378,7.185s-.631.578-.54,1.129c.051.311-.051.417-.15.453.11,0,.233.087.177.358-.087.464-.327,1.448-.327,1.448h.043a5.269,5.269,0,0,0-1.316,2.361v.1l-.276.6,2.365,1.043.209-.319a5.124,5.124,0,0,0,2.247,1.448,3.057,3.057,0,0,0,.627.071,5.6,5.6,0,0,0,1.947-.394s.867-1.07-1.38-1.275c0,0-1.316-1.507-1.182-2.145a7.514,7.514,0,0,0,.083-.811v-.173l.154.024.028-.488a.393.393,0,0,0,.091-.291c0-.2-.181-.232,0-.346s.177,0,.177-.287-.118-.2.15-.5-.028-.811-.028-.811a1.475,1.475,0,0,0,.587-1.047,14.953,14.953,0,0,1,2.424-4.608c.418-.146.449-.9.449-.9s.572.118.749,0a6.69,6.69,0,0,0,.749-1.015s2.274-5.737,2.306-7.909l.15-.492a3.408,3.408,0,0,1,.745,1.94,1.646,1.646,0,0,0,.666,1.393v2.463a7.221,7.221,0,0,1,.142,1.3c-.028.393.355.811.209,1.161a1.964,1.964,0,0,0,0,.956s-.032.811,0,1.043-.118,2.9.662,4.057a1.865,1.865,0,0,1,0,1.389c-.327.551.3,1.1.3,1.1a1.013,1.013,0,0,0,0,1.1,1.4,1.4,0,0,1,.28,1.027,2.882,2.882,0,0,0,0,1.9h0l.071.83,2.294-.177v-.46a8.557,8.557,0,0,0,3.023.189,2.867,2.867,0,0,0,2-1.09S97.153,632.584,94.642,633.194Z" transform="translate(-66.641 -409.461)"/><path class="o" d="M119.72,710.8a2.76,2.76,0,0,1-1.947,1.078,7.941,7.941,0,0,1-2.921-.193v.464l-2.215.173-.067-.826h0a3.05,3.05,0,0,1,.02-1.92,6.186,6.186,0,0,1,.272-.818s1.908-1.617,2.542-.393a1.969,1.969,0,0,0,.56.637,5.3,5.3,0,0,0,2.215.834C120.615,709.214,119.72,710.8,119.72,710.8Z" transform="translate(-90.561 -486.068)"/><path class="h" d="M116,710.605s0,1.5,1.1,1.472,1.246-.6.9-.984a4.636,4.636,0,0,1-.607-.893Z" transform="translate(-92.729 -487.459)"/><path class="o" d="M81.028,714.407a5.276,5.276,0,0,1-1.876.393,3.112,3.112,0,0,1-.607-.067,4.89,4.89,0,0,1-2.168-1.444l-.2.319-2.286-1.039.26-.606v-.106a5.268,5.268,0,0,1,1.269-2.337c.272-.315.485-.519.485-.519l2.759.393v.787a6.648,6.648,0,0,1-.079.811c-.114.633,1.155,2.133,1.155,2.133C81.868,713.328,81.028,714.407,81.028,714.407Z" transform="translate(-67.217 -486.732)"/><path class="j" d="M77.852,705.69a.272.272,0,0,1-.142,0,.4.4,0,0,1,.142,0Z" transform="translate(-69.531 -484.72)"/><path class="h" d="M80.958,709.417v.787l-3.228-.516a.561.561,0,0,1,.035-.165,5.73,5.73,0,0,1,.465-.523Z" transform="translate(-69.543 -486.732)"/><path class="h" d="M116.214,708.98c-.489,1.129-3.394.862-3.394.862a1.3,1.3,0,0,0,.02-.275,6.185,6.185,0,0,1,.272-.818s1.908-1.617,2.542-.393A1.969,1.969,0,0,0,116.214,708.98Z" transform="translate(-90.803 -486.062)"/><path class="j" d="M95.02,672.9c-.288,1.295-3.441,1.007-3.441,1.007a1.47,1.47,0,0,0-.26-1.094,1.006,1.006,0,0,1,0-1.1s-.607-.547-.288-1.1a1.9,1.9,0,0,0,0-1.385c-.749-1.153-.607-3.809-.639-4.037s0-1.039,0-1.039a2,2,0,0,1,0-.952c.142-.346-.229-.752-.2-1.153a7.557,7.557,0,0,0-.122-1.287v-2.451a1.648,1.648,0,0,1-.639-1.385A3.459,3.459,0,0,0,88.71,655l-.142.488c-.032,2.164-2.227,7.87-2.227,7.87a6.788,6.788,0,0,1-.721,1.007c-.173.118-.721,0-.721,0s-.032.752-.434.893a15.079,15.079,0,0,0-2.341,4.588,1.487,1.487,0,0,1-.579,1.07s.288.519.028.807-.142.2-.142.492,0,.173-.173.287,0,.146,0,.346a.417.417,0,0,1-.087.287l-.028.484-3.382-.539s.229-.984.315-1.444c.051-.272-.067-.342-.173-.358.095-.035.193-.142.146-.449-.087-.551.52-1.125.52-1.125a13.812,13.812,0,0,1,3.208-7.185c0-.173.575-.665.575-.665s.059-.787.552-.866,0-.72,0-.72a9.467,9.467,0,0,0,.575-1.759c.032-.46.193-2.625.193-2.625a1.717,1.717,0,0,0,.106-.98c-.134-.393,0-.492,0-.492a2.727,2.727,0,0,0,0-1.18,1.3,1.3,0,0,1-.1-.693l.079-1.133.122-1.692s8.987-1.531,9.968-.291a1.5,1.5,0,0,1,.233.508c.7,2.282.461,9.837.461,9.837l-.434,2.192a1.081,1.081,0,0,1,.2.748,1.8,1.8,0,0,0,.087.838s0,.173-.032.634a1.913,1.913,0,0,0,.032.637s.028,3.978.055,4.789a1.855,1.855,0,0,0,.319,1.125v.98a1.423,1.423,0,0,1,.114.579,1.356,1.356,0,0,0,.13.614Z" transform="translate(-69.562 -450.304)"/><path class="h" d="M79.152,719.183a3.117,3.117,0,0,1-.607-.067,4.889,4.889,0,0,1-2.168-1.444l-.2.319-2.286-1.039.26-.606v-.106l2.365,1.18A10.886,10.886,0,0,1,79.152,719.183Z" transform="translate(-67.217 -491.122)"/><path class="h" d="M118,717.411a7.945,7.945,0,0,1-2.921-.193v.464l-2.215.173-.067-.826c.7,0,1.833.028,2.322,0A10.784,10.784,0,0,1,118,717.411Z" transform="translate(-90.791 -491.602)"/><path class="h" d="M80.383,703.806a.9.9,0,0,1,.339.043,2.689,2.689,0,0,1,.323.232,1.58,1.58,0,0,1,.217.142c.083.083.118.2.2.287.158.153.394.122.615.193.024,0,.047,0,.051.043a.059.059,0,0,1-.035.055.347.347,0,0,1-.335,0,1.291,1.291,0,0,1-.276-.212,1.843,1.843,0,0,0-.544-.334c-.272-.11-.745-.138-.918-.394A.789.789,0,0,1,80.383,703.806Z" transform="translate(-70.931 -483.579)"/><path class="h" d="M79.847,705.324a.85.85,0,0,1,.173.071l.3.149a1.093,1.093,0,0,1-.6-.134,1.24,1.24,0,0,1-.193-.09A.912.912,0,0,1,79.847,705.324Z" transform="translate(-70.628 -484.492)"/><path class="h" d="M80.526,706.6a.755.755,0,0,1,.189,0,.942.942,0,0,1,.307.185,1.211,1.211,0,0,0,.765.264.336.336,0,0,1-.166.028H81a.721.721,0,0,1-.2,0,1,1,0,0,1-.256-.094c-.106-.047-.544-.173-.548-.319S80.42,706.6,80.526,706.6Z" transform="translate(-70.913 -485.264)"/><path class="h" d="M117.21,707.818a3.476,3.476,0,0,0,.572,0,1.114,1.114,0,0,0,.568-.181c.166-.126.13-.26-.079-.268a1.5,1.5,0,0,0-.572.138,1.9,1.9,0,0,0-.268.138C117.391,707.685,117.249,707.822,117.21,707.818Z" transform="translate(-93.462 -485.743)"/><path class="h" d="M117.744,709.31c0,.071-.091.11-.158.134a1.734,1.734,0,0,1-.508.114c-.043,0-.166,0-.15-.067s.2-.047.24-.055a4.166,4.166,0,0,0,.575-.126Z" transform="translate(-93.291 -486.919)"/><path class="h" d="M113.653,708.982a1.185,1.185,0,0,1,.694.138h0a.24.24,0,0,1-.236.126.989.989,0,0,1-.272-.071,1.6,1.6,0,0,0-.453-.067,1.21,1.21,0,0,1-.2,0c-.2-.035-.138-.114,0-.134a4.1,4.1,0,0,1,.473.008Z" transform="translate(-90.942 -486.714)"/><path class="h" d="M92.915,679.709a1.8,1.8,0,0,0-.985-.323A1.408,1.408,0,0,1,92.915,679.709Z" transform="translate(-78.147 -468.769)"/><path class="h" d="M92.793,677.246a1.443,1.443,0,0,1,.737.208l-.244-.071a2.423,2.423,0,0,0-.5-.1H92.5c-.095,0-.221-.028-.331-.032C92.363,677.25,92.58,677.238,92.793,677.246Z" transform="translate(-78.292 -467.471)"/><path class="h" d="M94.419,678.3a.2.2,0,0,1,.2.134,3.663,3.663,0,0,0-.642-.236c-.122-.039-.5-.2-.583-.091C93.7,678.2,94.06,678.231,94.419,678.3Z" transform="translate(-79.031 -467.972)"/><path class="h" d="M95.754,671.167a2.428,2.428,0,0,0,.993-.638.787.787,0,0,1-.367.645,1.971,1.971,0,0,1-.725.271,3.26,3.26,0,0,0-.745.224c-.114.055-.469.393-.583.393s.087-.248.138-.287a4.917,4.917,0,0,1,1.289-.61Z" transform="translate(-79.578 -463.399)"/><path class="h" d="M113.649,681.405c-.122-.043-1.616.244-1.525-.043.059-.177.544-.11.662-.106A3.055,3.055,0,0,1,113.649,681.405Z" transform="translate(-90.379 -469.895)"/><path class="s" d="M101.716,588.923a3.3,3.3,0,0,1-3.842,3.257,3.3,3.3,0,1,1,3.842-3.257Z" transform="translate(-80.073 -411.907)"/><path class="t" d="M100.424,596.933s-1.068,3.116-.461,3.75-4.363,1.011-4.363,1.011,2.077-3.723,1.876-4.647S100.424,596.933,100.424,596.933Z" transform="translate(-80.37 -418.564)"/><path class="h" d="M103.275,649.887a1.966,1.966,0,0,1,0,.216c-.059,1.472-2.688,4.443-3.3,3.935s-4.73-1.472-4.73-1.472-.607-.952-1.242-.952a3.263,3.263,0,0,1-1.048-.268l.122-1.692s8.987-1.531,9.968-.291a1.494,1.494,0,0,1,.225.523Z" transform="translate(-78.771 -450.268)"/><path class="u" d="M98.992,623.656a5.557,5.557,0,0,1-1.447,2.715c-.745.866-1.545,1.48-1.849,1.236a2.928,2.928,0,0,0-.717-.339c-1.368-.5-4.02-1.133-4.02-1.133s-.607-.952-1.242-.952a5.937,5.937,0,0,1-1.853-.633s.118-.173,0-.807-1.971.346-1.971.346a26.992,26.992,0,0,1,.575-6.347,13.164,13.164,0,0,0,.347-4.722s.477-2.613.993-4.683a6.718,6.718,0,0,1,.887-2.444c.666-.433,4.131,0,4.131,0a13.655,13.655,0,0,1,1.994.173.9.9,0,0,1,.418.338l.1.146a16.334,16.334,0,0,1,1.155,2.491c.552,1.326,2.72,6.922,2.72,6.922s-.059.393-.552,2.078S99.051,622.184,98.992,623.656Z" transform="translate(-74.488 -424.081)"/><path class="s" d="M110.479,655.65l1.037,1.015s.954,3.286-.288,2.994-2.278-2.1-2.278-2.1Z" transform="translate(-88.458 -454.375)"/><path class="h" d="M113.545,617.9c-2.46-.028-3.094-3.463-3.094-3.463a22.657,22.657,0,0,0-.493-4.037,6.546,6.546,0,0,1-.288-1.912,16.334,16.334,0,0,1,1.155,2.491C111.377,612.307,113.545,617.9,113.545,617.9Z" transform="translate(-88.894 -425.772)"/><path class="u" d="M113.765,617.242c-2.46-.027-3.094-3.463-3.094-3.463a22.658,22.658,0,0,0-.493-4.037,6.545,6.545,0,0,1-.288-1.912,16.33,16.33,0,0,1,1.155,2.491C111.6,611.647,113.765,617.242,113.765,617.242Z" transform="translate(-89.028 -425.372)"/><path class="h" d="M103.443,608.882s-.721-1.967-1.9,0a9.963,9.963,0,0,0-1.214,4.443l-.2,5.422a3.211,3.211,0,0,1,.363,1.125,6.026,6.026,0,0,0,.709,1.574s.173,2.278.836,2.656l.639,1.873a3.5,3.5,0,0,0,.461,1.732,1.446,1.446,0,0,1,.2,1.247l2.57-.9s-.292.106,0-.669a2.739,2.739,0,0,0-.173-1.786s-1.648-3.577-1.853-4.1a3.435,3.435,0,0,1-.394-1.731c.095-.606.024-7.04.173-8.019A11.728,11.728,0,0,0,103.443,608.882Z" transform="translate(-83.108 -425.479)"/><path class="o" d="M104.123,608.192s-.721-1.968-1.908,0A10.024,10.024,0,0,0,101,612.635l-.2,5.422a3.266,3.266,0,0,1,.363,1.125,6.043,6.043,0,0,0,.706,1.574s.173,2.278.84,2.652l.635,1.877a3.519,3.519,0,0,0,.465,1.731,1.446,1.446,0,0,1,.2,1.247l2.566-.9s-.288.106,0-.673a2.77,2.77,0,0,0-.181-1.794s-1.644-3.577-1.849-4.1a3.434,3.434,0,0,1-.394-1.731c.095-.606.024-7.04.169-8.023A11.965,11.965,0,0,0,104.123,608.192Z" transform="translate(-83.52 -425.061)"/><path class="h" d="M108.918,652.577a1.008,1.008,0,0,1,.315.094c.079.039.146.1.225.146a.591.591,0,0,0,.3.079,3.389,3.389,0,0,1-.347,0,.549.549,0,0,1-.213-.028.876.876,0,0,1-.181-.114,1.1,1.1,0,0,0-.229-.13c-.063-.024-.13-.031-.154-.094A1.786,1.786,0,0,1,108.918,652.577Z" transform="translate(-88.264 -452.482)"/><path class="h" d="M111.057,654.568c.11,0,.217-.024.327-.031a2.763,2.763,0,0,1,.477.024,1.311,1.311,0,0,1-.753.134.434.434,0,0,0-.225,0c-.079.031-.315.3-.335.063S110.923,654.572,111.057,654.568Z" transform="translate(-89.426 -453.698)"/><path class="h" d="M107.822,584.727l-.422-.307a.66.66,0,0,1,.13.059.9.9,0,0,1,.236.185l.134.122Z" transform="translate(-87.519 -411.173)"/><path class="h" d="M98.216,606.351a1.032,1.032,0,0,1-.355.429.712.712,0,0,1-.311.118,1.186,1.186,0,0,1-.465-.047,5.625,5.625,0,0,1-.568-.185,10.328,10.328,0,0,0-1.115-.393,1.784,1.784,0,0,0-1.663.338c-.367.37-.453.944-.816,1.314a2.273,2.273,0,0,1-1.971.366l-.162-.024a6.719,6.719,0,0,1,.887-2.444c.666-.433,4.131,0,4.131,0A13.663,13.663,0,0,1,97.8,606,.9.9,0,0,1,98.216,606.351Z" transform="translate(-77.456 -424.038)"/><path class="h" d="M95.16,588.916a3.292,3.292,0,0,1,5.593-2.361h0a6.04,6.04,0,0,0,.047,1.712,4.217,4.217,0,0,0,.867,1.354,3.3,3.3,0,0,1-6.507-.7Z" transform="translate(-80.103 -411.9)"/><path class="j" d="M95.111,583.27a4.113,4.113,0,0,0-4.777-.535,2.451,2.451,0,0,0-.859.787,9.243,9.243,0,0,0-.575,2.467,7.966,7.966,0,0,1-1.206,2.105,3.128,3.128,0,0,0-.646,2.282,8.132,8.132,0,0,1,.512,1.688,1.308,1.308,0,0,1-1.269,1.243,4.273,4.273,0,0,0,1.931.622,2.269,2.269,0,0,0,1.971-.366c.363-.37.449-.944.816-1.314a1.784,1.784,0,0,1,1.663-.338c.575.134,1.108.393,1.683.563a1.184,1.184,0,0,0,.465.047,1.13,1.13,0,0,0,.82-1.11c.032-.394-.028-.885.264-1.18a2.319,2.319,0,0,1,.359-.248,1.486,1.486,0,0,0,.635-1.413c-.138-.976-1.182-1.574-1.474-2.534a6.367,6.367,0,0,1-.047-1.712,1.463,1.463,0,0,0-.769-1.421" transform="translate(-74.73 -409.831)"/><path class="h" d="M96.767,589.586c-.134-.976-1.182-1.574-1.474-2.534a6.533,6.533,0,0,1-.047-1.712,1.851,1.851,0,0,0-.347-1.114l.083.059c-.043-.043-.091-.083-.138-.122a1.107,1.107,0,0,0-.225-.181l-.15-.1.079.075-.083-.059a1.843,1.843,0,0,1,.347,1.114,6.007,6.007,0,0,0,.047,1.708c.28.948,1.34,1.574,1.474,2.538a1.49,1.49,0,0,1-.635,1.413,2.314,2.314,0,0,0-.359.248c-.292.291-.233.787-.264,1.18a1.136,1.136,0,0,1-.816,1.11,1.263,1.263,0,0,1-.469-.047c-.572-.149-1.108-.429-1.683-.563a1.776,1.776,0,0,0-1.663.338c-.363.366-.453.944-.816,1.314a2.286,2.286,0,0,1-1.971.366,6.047,6.047,0,0,1-1.324-.3.849.849,0,0,1-.173,0,4.3,4.3,0,0,0,1.931.622,2.269,2.269,0,0,0,1.971-.366c.363-.37.453-.944.816-1.314a1.784,1.784,0,0,1,1.663-.338c.575.134,1.112.394,1.683.563a1.182,1.182,0,0,0,.469.047,1.122,1.122,0,0,0,.816-1.11c.032-.393-.028-.885.264-1.18a2.313,2.313,0,0,1,.359-.248A1.487,1.487,0,0,0,96.767,589.586Z" transform="translate(-74.651 -410.846)"/><path class="a" d="M92.452,711.975c.631,2.1-7.848,3.455-17.831,3.069-8.951-.342-15.971-1.987-16.487-3.707s5.585-3.12,14.43-3.148C82.429,708.19,91.821,709.878,92.452,711.975Z" transform="translate(-57.652 -486.24)"/></svg>