<svg xmlns="http://www.w3.org/2000/svg" xmlns:xlink="http://www.w3.org/1999/xlink" width="18" height="20" viewBox="0 0 18 20"><defs><style>.a{fill:#13c513;}.b{clip-path:url(#a);}.c{clip-path:url(#b);}</style><clipPath id="a"><path class="a" d="M19-19H14.82A3.01,3.01,0,0,0,12-21a3.01,3.01,0,0,0-2.82,2H5a2.006,2.006,0,0,0-2,2V-3A2.006,2.006,0,0,0,5-1H19a2.006,2.006,0,0,0,2-2V-17A2.006,2.006,0,0,0,19-19Zm-7,0a1,1,0,0,1,1,1,1,1,0,0,1-1,1,1,1,0,0,1-1-1A1,1,0,0,1,12-19ZM14-5H7V-7h7Zm3-4H7v-2H17Zm0-4H7v-2H17Z"/></clipPath><clipPath id="b"><path class="a" d="M-1342,695H659V-329H-1342Z"/></clipPath></defs><g transform="translate(-3 21)"><g class="b"><g class="c"><path class="a" d="M-2-26H26V4H-2Z"/></g></g></g></svg>