<svg xmlns="http://www.w3.org/2000/svg" xmlns:xlink="http://www.w3.org/1999/xlink" width="22" height="22" viewBox="0 0 22 22"><defs><style>.a{fill:#0ad3ff;}.b{clip-path:url(#a);}.c{clip-path:url(#b);}</style><clipPath id="a"><path class="a" d="M9.9-5.7h2.2v2.2H9.9Zm0-8.8h2.2v6.6H9.9ZM10.989-20A11,11,0,0,0,0-9,11,11,0,0,0,10.989,2,11.006,11.006,0,0,0,22-9,11.006,11.006,0,0,0,10.989-20ZM11-.2A8.8,8.8,0,0,1,2.2-9,8.8,8.8,0,0,1,11-17.8,8.8,8.8,0,0,1,19.8-9,8.8,8.8,0,0,1,11-.2Z" transform="translate(0 20)"/></clipPath><clipPath id="b"><path class="a" d="M-430,787.4H1771.1V-339H-430Z" transform="translate(430 339)"/></clipPath></defs><g transform="translate(0 20)"><g class="b" transform="translate(0 -20)"><g class="c" transform="translate(-473 -350.9)"><path class="a" d="M-5-25H28V8H-5Z" transform="translate(472.5 370.4)"/></g></g></g></svg>