<svg xmlns="http://www.w3.org/2000/svg" xmlns:xlink="http://www.w3.org/1999/xlink" width="438" height="349.54" viewBox="0 0 438 349.54"><defs><style>.a{fill:#f2f2f2;}.b{fill:#f5f5f5;}.c{fill:url(#a);}.ag,.d,.l,.z{fill:#fff;}.e{fill:#ff5252;}.f{fill:#ff0;}.g{fill:#69f0ae;}.ah,.h,.z{opacity:0.2;}.i,.j{fill:#45a4b6;}.j,.l{opacity:0.5;}.k{fill:#ff9800;}.m{fill:url(#j);}.n,.o,.p,.q,.r,.s{fill:none;}.ag,.n,.o,.p,.q,.r,.s{stroke:#45a4b6;stroke-miterlimit:10;}.o{stroke-dasharray:11.51 11.51;}.p{stroke-dasharray:13.06 13.06;}.q{stroke-dasharray:9.79 9.79;}.r{stroke-dasharray:11.28 11.28;}.s{stroke-dasharray:11.93 11.93;}.t{fill:url(#k);}.u{fill:url(#l);}.v{fill:url(#m);}.w{fill:url(#n);}.x{fill:#ca7070;}.y{fill:#00695c;}.aa{fill:#263238;}.ab{fill:url(#o);}.ac{fill:url(#p);}.ad{fill:#f6b9ad;}.ae{fill:#fccc63;}.af{fill:url(#u);}.ag{stroke-width:3px;}.ai{fill:url(#aa);}.aj{fill:#985454;}</style><linearGradient id="a" x1="0.5" y1="1" x2="0.5" gradientUnits="objectBoundingBox"><stop offset="0" stop-color="gray" stop-opacity="0.251"/><stop offset="0.54" stop-color="gray" stop-opacity="0.122"/><stop offset="1" stop-color="gray" stop-opacity="0.102"/></linearGradient><linearGradient id="j" x1="0.516" y1="0.999" x2="0.516" y2="-0.001" xlink:href="#a"/><linearGradient id="k" x1="1.221" y1="1.356" x2="1.221" y2="0.356" xlink:href="#a"/><linearGradient id="l" x1="1.26" y1="1.627" x2="1.26" y2="0.627" xlink:href="#a"/><linearGradient id="m" x1="0.506" y1="0.964" x2="0.506" y2="0.023" xlink:href="#a"/><linearGradient id="n" xlink:href="#a"/><linearGradient id="o" x1="0.498" x2="0.498" y2="0.007" xlink:href="#a"/><linearGradient id="p" xlink:href="#a"/><linearGradient id="u" xlink:href="#a"/><linearGradient id="aa" x1="0" y1="0.5" x2="1" y2="0.5" xlink:href="#a"/></defs><ellipse class="a" cx="32.936" cy="8.357" rx="32.936" ry="8.357" transform="translate(148.949 332.826)"/><ellipse class="a" cx="32.936" cy="8.357" rx="32.936" ry="8.357" transform="translate(151.407 240.408)"/><ellipse class="a" cx="32.936" cy="8.357" rx="32.936" ry="8.357" transform="translate(0 244.341)"/><rect class="b" width="188.276" height="7.128" transform="translate(11.12 1.966)"/><rect class="c" width="194.667" height="238.909" transform="translate(7.679)"/><rect class="d" width="188.276" height="225.882" transform="translate(11.12 9.094)"/><ellipse class="e" cx="1" cy="1.5" rx="1" ry="1.5" transform="translate(14 4)"/><circle class="f" cx="1.721" cy="1.721" r="1.721" transform="translate(18.002 3.933)"/><circle class="g" cx="1.721" cy="1.721" r="1.721" transform="translate(22.736 3.933)"/><g class="h" transform="translate(16.527 17.697)"><rect class="i" width="73.246" height="4.424"/></g><rect class="b" width="73.246" height="4.424" transform="translate(68.635 35.885)"/><rect class="j" width="73.246" height="4.424" transform="translate(16.527 178.444)"/><rect class="c" width="24.579" height="5.407" transform="translate(99.604 177.953)"/><rect class="c" width="24.579" height="5.407" transform="translate(99.604 205.481)"/><rect class="c" width="24.579" height="5.407" transform="translate(149.746 205.481)"/><rect class="i" width="23.104" height="4.424" transform="translate(100.588 178.444)"/><rect class="i" width="23.104" height="4.424" transform="translate(100.588 205.973)"/><rect class="i" width="23.104" height="4.424" transform="translate(150.237 205.973)"/><rect class="b" width="73.246" height="4.424" transform="translate(16.527 192.209)"/><rect class="j" width="73.246" height="4.424" transform="translate(100.588 192.209)"/><rect class="b" width="73.246" height="4.424" transform="translate(100.588 219.737)"/><rect class="j" width="73.246" height="4.424" transform="translate(16.527 205.973)"/><rect class="b" width="73.246" height="4.424" transform="translate(16.527 219.737)"/><rect class="b" width="41.293" height="4.424" transform="translate(68.635 43.259)"/><rect class="b" width="14.256" height="4.424" transform="translate(117.301 43.259)"/><rect class="b" width="41.293" height="4.424" transform="translate(68.635 58.007)"/><rect class="b" width="14.256" height="4.424" transform="translate(117.301 58.007)"/><rect class="b" width="73.246" height="4.424" transform="translate(68.635 50.633)"/><g class="h" transform="translate(119.759 17.697)"><rect class="i" width="73.246" height="4.424"/></g><rect class="c" width="8.848" height="5.407" transform="translate(161.052 35.394)"/><rect class="c" width="8.848" height="5.407" transform="translate(161.052 42.768)"/><rect class="c" width="8.848" height="5.407" transform="translate(161.052 50.141)"/><rect class="e" width="7.865" height="4.424" transform="translate(161.544 35.885)"/><rect class="k" width="7.865" height="4.424" transform="translate(161.544 43.259)"/><rect class="g" width="7.865" height="4.424" transform="translate(161.544 50.633)"/><rect class="c" width="8.848" height="5.407" transform="translate(161.052 57.515)"/><rect class="i" width="7.865" height="4.424" transform="translate(161.544 58.007)"/><rect class="c" width="180.411" height="73.737" transform="translate(15.052 89.468)"/><rect class="j" width="176.478" height="69.805" transform="translate(16.527 90.943)"/><path class="l" d="M39.027,190.407H210.1V185H33.62v69.8h5.407Z" transform="translate(-17.093 -94.057)"/><rect class="m" width="181.886" height="74.721" transform="translate(15.969 101.326) rotate(-5.2)"/><rect class="d" width="176.478" height="69.805" transform="translate(19.082 103.012) rotate(-5.2)"/><path class="j" d="M216.848,359.4,213.8,320.68s15.731-16.714,47.487-4.326,46.73,3.643,51.891-4.724,31.953-17.7,40.634-3.7,19.093-1.74,19.093-1.74l3.52,38.673Z" transform="translate(-184.649 -199.348)"/><line class="n" x2="0.265" y2="2.94" transform="translate(48.19 112.897)"/><line class="o" x2="2.822" y2="30.999" transform="translate(48.971 121.47)"/><line class="n" x2="0.27" y2="2.935" transform="translate(52.049 155.286)"/><line class="n" x2="0.27" y2="2.935" transform="translate(78.417 117.695)"/><line class="p" x2="2.04" y2="22.372" transform="translate(79.268 127.025)"/><line class="n" x2="0.265" y2="2.94" transform="translate(81.598 152.592)"/><line class="n" x2="0.295" y2="2.935" transform="translate(109.259 122.945)"/><line class="q" x2="1.662" y2="16.763" transform="translate(110.031 130.672)"/><line class="n" x2="0.29" y2="2.94" transform="translate(111.933 149.829)"/><line class="n" x2="0.265" y2="2.94" transform="translate(136.979 105.612)"/><line class="r" x2="2.768" y2="30.375" transform="translate(137.746 114.072)"/><line class="n" x2="0.27" y2="2.94" transform="translate(140.765 147.204)"/><line class="n" x2="0.265" y2="2.935" transform="translate(156.987 101.556)"/><line class="s" x2="2.925" y2="32.115" transform="translate(157.783 110.331)"/><line class="n" x2="0.27" y2="2.935" transform="translate(160.974 145.366)"/><circle class="k" cx="2.458" cy="2.458" r="2.458" transform="translate(45.43 110.489) rotate(-5.2)"/><circle class="e" cx="2.458" cy="2.458" r="2.458" transform="translate(75.515 115.651) rotate(-5.2)"/><circle class="g" cx="2.458" cy="2.458" r="2.458" transform="translate(106.585 120.719) rotate(-5.2)"/><circle class="t" cx="3.441" cy="3.441" r="3.441" transform="translate(133.063 102.513) rotate(-5.2)"/><circle class="u" cx="3.441" cy="3.441" r="3.441" transform="translate(153.445 98.686) rotate(-5.2)"/><circle class="i" cx="2.458" cy="2.458" r="2.458" transform="translate(134.131 103.403) rotate(-5.2)"/><circle class="i" cx="2.458" cy="2.458" r="2.458" transform="translate(154.514 99.576) rotate(-5.2)"/><circle class="g" cx="2.458" cy="2.458" r="2.458" transform="translate(185.667 105.625) rotate(-5.2)"/><g class="h" transform="translate(193.32 156.654)"><path class="v" d="M547.76,413.176l.034.113C548.173,413.078,547.76,413.176,547.76,413.176Z" transform="translate(-547.76 -413.154)"/></g><g class="h" transform="translate(159.738 154.358)"><path class="w" d="M508.958,493.377l8-1.293-1.1-4.916h0V487.1h-.029l-5.673-26.054v-19a7.023,7.023,0,0,0-.039-.723c8.475-11.238,3.441-28.871,2.95-30.409-.089.044-.221.1-.408.177a10.351,10.351,0,0,0-.388-2.03s-2.458-1.563-3.8.447c-1.17,1.755-.3,2.827-.059,3.077l-.167.054a5.663,5.663,0,0,1,.777,1.937,4.261,4.261,0,0,0-.265-.492c-.31-.054-.492-.1-.492-.1l-.059-.054-.167.054c.85,1.244,1.15,3.441,1.111,6.046a8.541,8.541,0,0,0-.983-1.136,8.676,8.676,0,0,0-5.751-2.4h-.408a5.093,5.093,0,0,0-.669.044h-.167l-.28.039-.32.059-.231.049-.4.108-.147.044c-.167.054-.329.108-.492.172a8.473,8.473,0,0,1-1.686.61.819.819,0,0,0-.241.025h0a2.812,2.812,0,0,1-1.843-.526l-.177-.138a2.593,2.593,0,0,1-.192-.182,1.248,1.248,0,0,0-.084.536,1.647,1.647,0,0,0,.575,1.116,1.557,1.557,0,0,0,.3.206,1.317,1.317,0,0,0,.521.147h.143c-.113.054-.226.1-.344.148h-.025c-.128.044-.251.084-.383.118h0a4.268,4.268,0,0,1-1.966.029h0l-.211-.049c-.1-.03-.211-.059-.31-.093a2.366,2.366,0,0,0,.108.216l.039.064.089.138.054.069.1.123.059.064.123.123.049.044.182.152.064.044.133.093.089.054.118.069.1.049.123.054.1.044.138.049.172.049.128.034h.855a2.456,2.456,0,0,0,.737-.182l-.452.187h0l-.226.079-.231.084-.231.069-.236.069-.231.059-.246.059-.226.044L494.6,421l-.216.034-.28.034h-1.18a2.07,2.07,0,0,1,.742.393,1.97,1.97,0,0,0,.457.246,1.759,1.759,0,0,0,.221.049h1.1a3.215,3.215,0,0,1,1.273.408,2.285,2.285,0,0,1,.546.492c-.069.113-.138.221-.2.339s-.1.2-.152.3a6.116,6.116,0,0,0-.261.624,6.922,6.922,0,0,0-.423,2.384v.57a1.626,1.626,0,0,0,.039.354v.093q.029.216.079.428v.083q.039.177.089.349l.029.1a6.9,6.9,0,0,0,.3.816l.034.079q.084.182.172.354v.034q.108.2.226.388v.029q.108.177.231.344l.029.039a6.969,6.969,0,0,0,.575.693h0a6.951,6.951,0,0,0,1.853,1.391,3.073,3.073,0,0,0-.054.32h0a3.116,3.116,0,0,0,0,.334v2.6q-.221.118-.433.251c-6.16-2.8-15.332-22.613-15.332-22.613h-.221c.895-.669,0-3.579,0-3.579a4.2,4.2,0,0,0-1.721-.57h-.791l-.1.03h-.049l-.147.054h0l-.138.064-.049.025-.093.054-.064.3-.089.059-.054.044-.084.069-.054.049-.084.079-.049.054-.083.1-.039.049-.123.167c-1.342,2.011,0,3.131,0,3.131a20.029,20.029,0,0,0-.123,2.335c-.1,14.482,15.4,25.7,16.193,26.265a29.729,29.729,0,0,0,.034,18.921.317.317,0,0,0,.039.069,29.043,29.043,0,0,0-8.711,27.47l.064.3h.143a1.976,1.976,0,0,1-.054.2,2.261,2.261,0,0,1-.143.344,2.666,2.666,0,0,1-.359.526h0c-.152.177-.329.354-.516.536l-.2.187c-.782.747-1.573,1.475-.983,1.77h8.46v-3.692h.148s-.059-.113-.148-.334v-.039h-.029c-.442-1.141-1.475-4.67.177-10.107,2.011-6.71,9.832-10.063,9.832-10.063l.143.492h-.03l6.135,20.155a.821.821,0,0,1-.025.241,3.278,3.278,0,0,1-.133.56,3.555,3.555,0,0,1-.167.413c-.379.782-1.032,1.7-1.317,2.389a2.318,2.318,0,0,0-.1.29.894.894,0,0,0-.034.344.4.4,0,0,0,.26.329h.113l.236-.039Zm-2.369-57.382q-.231-.128-.492-.241v-2.438a3.107,3.107,0,0,0-.054-.555,6.936,6.936,0,0,0,1.475-.949c-.295,1.5-.624,2.945-.924,4.183Z" transform="translate(-479.447 -408.482)"/></g><path class="x" d="M479.7,418.324s-1.475-1.239,0-3.471,4.213-.492,4.213-.492.983,3.22,0,3.962S479.7,418.324,479.7,418.324Z" transform="translate(-319.505 -256.785)"/><path class="y" d="M501.615,591.75h-6.828a2.242,2.242,0,0,1-.644,1.755c-.919,1.062-2.768,2.345-1.9,2.782h9.37Z" transform="translate(-326.1 -347.301)"/><path class="z" d="M494.644,593.505a2.242,2.242,0,0,0,.644-1.755H494.8a2.241,2.241,0,0,1-.644,1.755c-.919,1.062-2.768,2.345-1.9,2.782h.492C491.877,595.85,493.725,594.572,494.644,593.505Z" transform="translate(-326.105 -347.301)"/><path class="y" d="M552.419,588.89l-6.391,1.037a3.255,3.255,0,0,1-.29,2.251c-.7,1.475-2.266,3.313-1.322,3.711l9.252-1.475Z" transform="translate(-352.59 -345.847)"/><path class="y" d="M545.88,416.922s7.31,23.06-4.95,35.827l-3.539-2.709s7.246-25.169,3.19-31.078C547.738,416.578,545.88,416.922,545.88,416.922Z" transform="translate(-349.168 -258.406)"/><path class="x" d="M543.7,416.314s-1.475-1.239,0-3.471,4.213-.492,4.213-.492.983,3.22,0,3.962S543.7,416.314,543.7,416.314Z" transform="translate(-352.044 -255.763)"/><path class="z" d="M546.23,592.158a3.254,3.254,0,0,0,.29-2.256l5.9-.983v-.079l-6.391,1.062a3.255,3.255,0,0,1-.29,2.251c-.7,1.475-2.266,3.313-1.322,3.711l.388-.064C544.1,595.309,545.561,593.544,546.23,592.158Z" transform="translate(-352.59 -345.821)"/><rect class="x" width="6.936" height="10.279" rx="3.468" transform="translate(182.121 179.998)"/><path class="z" d="M537.632,455.122s7.157-24.859,3.259-30.97c-.344-.064-.565-.113-.565-.113l-.064-.059-.182.059c4.056,5.9-3.19,31.078-3.19,31.078l3.539,2.709.31-.334Z" transform="translate(-348.914 -262.004)"/><circle class="x" cx="7.679" cy="7.679" r="7.679" transform="translate(178.036 168.234)"/><path class="z" d="M521.612,455.3v-3.343a3.439,3.439,0,0,1,.079-.728,7.679,7.679,0,0,1,3.077-14.5h-.433a7.679,7.679,0,0,0-3.515,14.507,3.434,3.434,0,0,0-.079.728v3.343a3.441,3.441,0,0,0,3.9,3.441,3.481,3.481,0,0,1-3.033-3.451Z" transform="translate(-338.625 -268.486)"/><path class="y" d="M530.512,500.463s-14.811,1.671-15.357,0a32.742,32.742,0,0,1,0-21.054,7.678,7.678,0,0,1,7.678-7.679h0a7.679,7.679,0,0,1,7.679,7.679Z" transform="translate(-336.996 -286.281)"/><path class="aa" d="M521.46,530.18l6.69,30.719h-6.69l-6.936-22.79s-8.672,3.716-10.9,11.149,0,11.641,0,11.641h-7.187l-.074-.334A31.953,31.953,0,0,1,506.1,530.18h0" transform="translate(-327.943 -315.998)"/><path class="z" d="M515.893,500.478a32.742,32.742,0,0,1,0-21.055,7.679,7.679,0,0,1,7.183-7.664h-.493a7.679,7.679,0,0,0-7.679,7.679,32.748,32.748,0,0,0,0,21.055c.2.6,2.222.767,4.739.742C517.6,501.191,516.051,500.994,515.893,500.478Z" transform="translate(-336.869 -286.296)"/><path class="y" d="M498.081,454.551s-19.816-13.872-17.835-31.461H484.7s10.648,23.06,17.471,25.272S498.081,454.551,498.081,454.551Z" transform="translate(-320.044 -261.551)"/><g class="h" transform="translate(167.71 214.305)"><path class="d" d="M534.31,546.978l6.808,22.372h.983l-6.936-22.79S534.846,546.7,534.31,546.978Z" transform="translate(-515.312 -538.631)"/><path class="d" d="M507.1,530.43h-.983a31.953,31.953,0,0,0-9.733,30.385l.074.334h.983l-.074-.334A31.953,31.953,0,0,1,507.1,530.43Z" transform="translate(-495.663 -530.43)"/></g><path class="z" d="M480.99,423.6h-.742c-1.966,17.589,17.835,31.461,17.835,31.461l.492-.187C496.278,453.179,479.137,440.019,480.99,423.6Z" transform="translate(-320.046 -261.81)"/><path class="aa" d="M514.451,437.425a12.716,12.716,0,0,1,.895,3.092,8.2,8.2,0,0,0,3.515,5.407,7.8,7.8,0,0,0,3.441.939,6.57,6.57,0,0,0,5.1-1.539,6.322,6.322,0,0,0,1.558-3.141,10.633,10.633,0,0,0-2.8-9.773,9.433,9.433,0,0,0-9.832-2.06,9.389,9.389,0,0,1-1.863.678,3.1,3.1,0,0,1-2.718-.9,1.716,1.716,0,0,0,1.657,2.222,4.783,4.783,0,0,1-3.667.2,3.112,3.112,0,0,0,3.933,1.568,10.481,10.481,0,0,1-4.424.9c.32,0,.944.59,1.332.708a8.454,8.454,0,0,0,1.475.1,2.861,2.861,0,0,1,2.394,1.6Z" transform="translate(-334.861 -264.944)"/><g class="h" transform="translate(174.369 164.813)"><path class="d" d="M515.869,432.7a4.734,4.734,0,0,1-1.819.467,4.769,4.769,0,0,0,2.315-.467,1.735,1.735,0,0,1-1.74-1.873,2.924,2.924,0,0,1-.413-.349,1.716,1.716,0,0,0,1.657,2.222Z" transform="translate(-511.671 -430.122)"/><path class="d" d="M520.127,431.029a9.39,9.39,0,0,0,1.863-.678,8.546,8.546,0,0,1,2.949-.595,8.634,8.634,0,0,0-3.441.595,9.388,9.388,0,0,1-1.863.678.817.817,0,0,0-.266.029,2.951,2.951,0,0,0,.757-.029Z" transform="translate(-514.375 -429.751)"/><path class="d" d="M511.034,440.232c-.388-.113-1.013-.7-1.332-.708a10.481,10.481,0,0,0,4.424-.9,2.742,2.742,0,0,1-.983.206,10.485,10.485,0,0,1-3.933.7c.32,0,.944.59,1.332.708a3.3,3.3,0,0,0,1.032.084A2.155,2.155,0,0,1,511.034,440.232Z" transform="translate(-509.21 -434.26)"/><path class="d" d="M525.441,453.142A7.8,7.8,0,0,1,522,452.2a8.317,8.317,0,0,1-3.515-5.407,12.712,12.712,0,0,0-.895-3.092,2.861,2.861,0,0,0-2.423-1.588,4.957,4.957,0,0,0-.737,0h.241a2.861,2.861,0,0,1,2.423,1.588,12.706,12.706,0,0,1,.895,3.092A8.2,8.2,0,0,0,521.5,452.2a7.8,7.8,0,0,0,3.441.939h.5Z" transform="translate(-511.864 -436.03)"/><path class="d" d="M513.382,437.17a3.136,3.136,0,0,1-2.517-1.607,4.585,4.585,0,0,1-.575-.162A3.136,3.136,0,0,0,513.382,437.17Z" transform="translate(-509.759 -432.623)"/></g><path class="z" d="M480.2,418.319s-1.475-1.239,0-3.471a2.374,2.374,0,0,1,1.839-1.126,2.409,2.409,0,0,0-2.33,1.126c-1.475,2.232,0,3.471,0,3.471a13.432,13.432,0,0,0,2.915.324A14.664,14.664,0,0,1,480.2,418.319Z" transform="translate(-319.51 -256.78)"/><g class="h" transform="translate(17.978 161.503)"><path class="ab" d="M191.268,423.171l.039-.133S190.806,422.94,191.268,423.171Z" transform="translate(-191.072 -423.018)"/></g><g class="h" transform="translate(7.767 158.726)"><path class="ac" d="M227.029,428.538a3.23,3.23,0,0,0-.177-.457c0-.049-.049-.089-.074-.133a2.76,2.76,0,0,0-.147-.256l-.1-.128a2.473,2.473,0,0,0-.162-.192l-.113-.113q-.088-.081-.177-.148l-.123-.088-.2-.118-.123-.064-.221-.093-.113-.044a2.714,2.714,0,0,0-.32-.089h0a5.078,5.078,0,0,0-2.158.059s-2.06,3.038-1.268,4.129l-.261-.079s-15.3,17.078-23.935,20.248q-.329-.226-.683-.423v-3.2a3.762,3.762,0,0,0,0-.4h0a3.728,3.728,0,0,0-.064-.379l.064-.034.256-.143.369-.226.236-.152a4.9,4.9,0,0,0,.492-.383l.192-.167q.177-.147.339-.31l.2-.192q.206-.211.393-.433l.138-.167q.177-.221.339-.452l.138-.206q.147-.226.28-.462l.089-.152a6.726,6.726,0,0,0,.3-.629l.079-.192q.1-.26.192-.526a.912.912,0,0,1,.059-.187c.069-.231.133-.462.182-.7a.292.292,0,0,1,.025-.143q.059-.3.093-.61V439.9c0-.251.039-.492.039-.762a8.358,8.358,0,0,0-1.859-5.256c.654-1.022,1.082-1.626,1.082-1.626-.393-.27-.782-.516-1.165-.757l-.374-.221c-.256-.152-.492-.3-.767-.442l-.428-.226c-.231-.123-.457-.241-.683-.349l-.437-.2-.654-.285-.428-.172c-.216-.084-.433-.162-.644-.236l-.4-.138c-.221-.069-.442-.133-.659-.192l-.359-.1c-.246-.059-.492-.108-.732-.157l-.261-.054c-.329-.059-.654-.1-.983-.133h0a11.655,11.655,0,0,0-5.9.9,10.887,10.887,0,0,1,1.317-5.486l-.2-.069-.069.069s-.241.054-.619.123a5.126,5.126,0,0,0-.32.595,6.837,6.837,0,0,1,.939-2.34l-.2-.069c.29-.3,1.342-1.593-.069-3.711-1.622-2.428-4.591-.541-4.591-.541a12.566,12.566,0,0,0-.462,2.458c-.226-.093-.388-.162-.492-.216a61.2,61.2,0,0,0-2.306,15.416c-5.353,7.6-7.565,18.818-8,21.236h0l-.034.192h0c-.029.177-.044.27-.044.27l13.917.324v22.18l-10.132,21.428s3.854.123,9.655.865l-1.6,11.459h0l-.536,3.215h9.645c1.072-2.143-4.287-3.215-4.287-3.215h-.118l2.089-10.692q1.386.231,2.851.492a27.926,27.926,0,0,0,4.341.492h0a23.064,23.064,0,0,0,3.613-.157,25.15,25.15,0,0,1-.4,9.832h-.054l-.536,3.215h9.645c.934-1.868-3.018-2.925-4.046-3.161l.044-.315a53.787,53.787,0,0,0,.379-10.913,13.21,13.21,0,0,0,3.441-2.05h0l.133-.118h0l.039-.039L201.2,480.11c1.342-5.7-3.328-11.69-.836-14.684s.983-6.813.688-7.467c6.745-2.95,20.376-10.323,24.2-23.1a24.17,24.17,0,0,0,.683-2.738S227.864,431.335,227.029,428.538Z" transform="translate(-170.3 -417.368)"/></g><path class="e" d="M192.344,430.922s-7.31,23.06,4.95,35.827l3.539-2.709s-7.246-25.169-3.19-31.078C190.485,430.578,192.344,430.922,192.344,430.922Z" transform="translate(-172.641 -265.524)"/><path class="ad" d="M200.051,430.314s1.475-1.239,0-3.471-4.213-.492-4.213-.492-.983,3.22,0,3.962S200.051,430.314,200.051,430.314Z" transform="translate(-175.295 -262.881)"/><rect class="ad" width="6.936" height="10.279" rx="3.468" transform="translate(34.293 197.159) rotate(180)"/><path class="z" d="M206.267,469.122s-7.157-24.859-3.259-30.97c.344-.064.565-.113.565-.113l.064-.059.182.059c-4.056,5.9,3.19,31.078,3.19,31.078l-3.539,2.709-.31-.334Z" transform="translate(-178.571 -269.121)"/><circle class="ad" cx="7.679" cy="7.679" r="7.679" transform="translate(23.021 175.116)"/><path class="z" d="M219.236,469.3v-3.343a3.443,3.443,0,0,0-.079-.728,7.679,7.679,0,0,0-3.077-14.5h.433a7.679,7.679,0,0,1,3.515,14.507,3.439,3.439,0,0,1,.079.728v3.343a3.441,3.441,0,0,1-3.9,3.441,3.48,3.48,0,0,0,3.033-3.451Z" transform="translate(-185.808 -275.604)"/><path class="e" d="M201.08,514.463s14.811,1.671,15.357,0c1.77-5.407-2.949-11.252-.59-14.108,2.458-2.95.59-6.946.59-6.946a7.679,7.679,0,0,0-7.679-7.679h0a7.679,7.679,0,0,0-7.679,7.679Z" transform="translate(-178.182 -293.398)"/><path class="z" d="M223.32,500.355c2.458-2.95.59-6.946.59-6.946a7.679,7.679,0,0,0-7.679-7.679,3.259,3.259,0,0,0-.492.025,7.674,7.674,0,0,1,7.187,7.654s1.868,4-.59,6.946c-2.379,2.856,2.36,8.7.59,14.108-.167.516-1.7.713-3.726.742,2.5.025,4.518-.143,4.709-.742C225.7,509.046,220.941,503.211,223.32,500.355Z" transform="translate(-185.635 -293.398)"/><path class="ad" d="M211.288,543.18h0c5.407,7.664,7.8,19.246,6.253,30.385l-.044.334H212.88s1.431-4.213,0-11.641a18.38,18.38,0,0,0-7-11.149l-4.454,22.79h-4.3l4.3-30.719Z" transform="translate(-176.174 -322.607)"/><path class="ad" d="M274.552,447.969s1.784-.747,1.018-3.318-3.883-1.706-3.883-1.706-1.893,2.787-1.16,3.79S274.552,447.969,274.552,447.969Z" transform="translate(-213.404 -271.575)"/><path class="e" d="M220.48,476.812s23.011-7.457,26.27-24.854l-4.262-1.308s-16.935,18.906-24.088,19.039S220.48,476.812,220.48,476.812Z" transform="translate(-185.607 -275.563)"/><path class="z" d="M250.435,453.35l.713.216c-3.259,17.4-26.27,24.854-26.27,24.854l-.408-.32C227.188,477.157,247.4,469.577,250.435,453.35Z" transform="translate(-190.074 -276.936)"/><g class="h" transform="translate(24.265 220.573)"><path class="d" d="M208.314,559.31,203.86,582.1h.983l4.326-22.121a10.638,10.638,0,0,0-.855-.669Z" transform="translate(-203.86 -551.381)"/><path class="d" d="M224.913,543.18h-.983c5.407,7.664,7.8,19.246,6.253,30.385l-.044.334h.983l.044-.334C232.715,562.426,230.33,550.844,224.913,543.18Z" transform="translate(-214.064 -543.18)"/></g><path class="z" d="M275.429,447.9s1.784-.747,1.018-3.318a2.374,2.374,0,0,0-1.426-1.617,2.409,2.409,0,0,1,1.9,1.76c.767,2.566-1.018,3.318-1.018,3.318a13.429,13.429,0,0,1-2.881-.541A14.665,14.665,0,0,0,275.429,447.9Z" transform="translate(-214.758 -271.653)"/><path class="aa" d="M191.42,542.48l-9.34,19.663A115.51,115.51,0,0,1,198.3,564.11c10.323,1.966,15.239-2.949,15.239-2.949l-6.661-18.68Z" transform="translate(-168.522 -322.251)"/><path class="e" d="M201.036,605.48s4.916.983,3.933,2.95H196.12l.492-2.95Z" transform="translate(-175.66 -354.281)"/><path class="e" d="M233.036,605.48s4.916.983,3.933,2.95H228.12l.492-2.95Z" transform="translate(-191.93 -354.281)"/><path class="ae" d="M202.649,449.953s-11.8,16.714-6.391,23.6l-21.138-.492S181.019,435.205,202.649,449.953Z" transform="translate(-164.984 -273.474)"/><path class="z" d="M202.649,450.013a17.907,17.907,0,0,0-8.234-3.353,20.808,20.808,0,0,1,5.776,2.861s-11.8,16.714-6.391,23.6l-18.606-.433c-.049.28-.074.433-.074.433l21.138.492C190.851,466.726,202.649,450.013,202.649,450.013Z" transform="translate(-164.984 -273.535)"/><path class="z" d="M227.826,542.48h-1.475l6.661,18.68s-3.176,3.171-9.783,3.4c7.6.246,11.257-3.4,11.257-3.4Z" transform="translate(-189.444 -322.251)"/><path class="z" d="M205.1,605.48h-.983s4.916.983,3.933,2.95h.983C210.019,606.463,205.1,605.48,205.1,605.48Z" transform="translate(-179.728 -354.281)"/><path class="z" d="M237.1,605.48h-.983s4.916.983,3.933,2.95h.983C242.019,606.463,237.1,605.48,237.1,605.48Z" transform="translate(-195.997 -354.281)"/><rect class="b" width="188.276" height="7.128" transform="translate(246.096 82.429)"/><rect class="c" width="195.65" height="243.825" transform="translate(242.35 80.153)"/><rect class="d" width="188.276" height="225.882" transform="translate(246.096 89.557)"/><circle class="e" cx="1.721" cy="1.721" r="1.721" transform="translate(248.741 84.395)"/><circle class="f" cx="1.721" cy="1.721" r="1.721" transform="translate(253.47 84.395)"/><circle class="g" cx="1.721" cy="1.721" r="1.721" transform="translate(258.204 84.395)"/><g class="h" transform="translate(257.894 99.634)"><rect class="i" width="165.172" height="4.424"/></g><rect class="c" width="71.279" height="75.704" transform="translate(256.911 118.806)"/><rect class="d" width="68.33" height="70.788" transform="translate(258.386 121.264)"/><rect class="c" width="71.279" height="75.704" transform="translate(351.786 156.657)"/><rect class="d" width="68.33" height="70.788" transform="translate(353.261 159.115)"/><rect class="c" width="167.63" height="52.108" transform="translate(258.386 250.058)"/><rect class="j" width="161.239" height="46.7" transform="translate(261.827 253.499)"/><path class="l" d="M536.553,520.1H693.859V515.68H532.62v46.7h3.933Z" transform="translate(-270.793 -262.181)"/><path class="af" d="M740.669,361.745a30.478,30.478,0,1,0,7.374,19.885,30.478,30.478,0,0,0-7.374-19.885Zm-12.29,38.083a12.042,12.042,0,1,1,.015,0Z" transform="translate(-425.274 -224.972)"/><path class="e" d="M764.384,370.018l6.71-5.776A28.929,28.929,0,0,0,749.12,354.16v8.848a20.111,20.111,0,0,1,15.264,7.01Z" transform="translate(-456.815 -226.506)"/><path class="g" d="M736.74,451.227a20.027,20.027,0,0,1-8.318-1.8l-3.652,8.067a29,29,0,0,0,26.786-1.475l-4.523-7.615a20.027,20.027,0,0,1-10.294,2.827Z" transform="translate(-444.435 -274.419)"/><path class="k" d="M788.77,393.581a28.88,28.88,0,0,0-7.03-18.921l-6.71,5.776a20.121,20.121,0,0,1-4.97,30.478l4.523,7.615a29,29,0,0,0,14.187-24.948Z" transform="translate(-467.462 -236.928)"/><path class="i" d="M698.967,383.153A20.155,20.155,0,0,1,719.122,363V354.15a29,29,0,0,0-11.97,55.421L710.8,401.5a20.155,20.155,0,0,1-11.837-18.351Z" transform="translate(-426.817 -226.501)"/><rect class="c" width="52.108" height="8.848" transform="translate(362.601 169.439)"/><rect class="i" width="51.125" height="7.865" transform="translate(363.093 169.93)"/><rect class="e" width="37.36" height="7.865" transform="translate(363.093 183.203)"/><rect class="g" width="25.562" height="7.865" transform="translate(363.093 196.476)"/><rect class="k" width="46.209" height="7.865" transform="translate(363.093 209.748)"/><rect class="b" width="73.246" height="4.424" transform="translate(258.386 206.307)"/><rect class="b" width="41.293" height="4.424" transform="translate(258.386 213.681)"/><rect class="b" width="14.256" height="4.424" transform="translate(307.052 213.681)"/><rect class="b" width="14.256" height="4.424" transform="translate(307.052 229.903)"/><rect class="b" width="41.293" height="4.424" transform="translate(258.386 228.429)"/><rect class="b" width="73.246" height="4.424" transform="translate(258.386 221.055)"/><rect class="b" width="73.246" height="4.424" transform="translate(350.803 119.297)"/><rect class="b" width="41.293" height="4.424" transform="translate(350.803 126.671)"/><rect class="b" width="14.256" height="4.424" transform="translate(399.47 126.671)"/><rect class="b" width="14.256" height="4.424" transform="translate(399.47 142.893)"/><rect class="b" width="41.293" height="4.424" transform="translate(350.803 141.418)"/><rect class="b" width="73.246" height="4.424" transform="translate(350.803 134.045)"/><circle class="c" cx="5.407" cy="5.407" r="5.407" transform="translate(368.5 333.136)"/><circle class="e" cx="3.933" cy="3.933" r="3.933" transform="translate(369.975 334.61)"/><rect class="c" width="169.104" height="59.481" transform="translate(214.143 278.57)"/><rect class="d" width="161.239" height="46.7" transform="translate(219.059 281.028)"/><line class="ag" x2="149.441" transform="translate(224.466 318.88)"/><rect class="c" width="22.121" height="27.037" transform="translate(225.941 290.368)"/><rect class="i" width="19.663" height="25.071" transform="translate(227.17 291.597)"/><rect class="g" width="19.663" height="7.865" transform="translate(350.312 309.54)"/><rect class="k" width="19.663" height="17.697" transform="translate(313.443 299.216)"/><rect class="e" width="19.663" height="14.747" transform="translate(270.184 302.166)"/><rect class="e" width="161.239" height="6.882" transform="translate(219.059 327.728)"/><circle class="c" cx="5.407" cy="5.407" r="5.407" transform="translate(220.534 333.136)"/><circle class="e" cx="3.933" cy="3.933" r="3.933" transform="translate(222.009 334.61)"/><rect class="e" width="3.933" height="51.616" transform="translate(215.126 282.994)"/><rect class="ah" width="3.933" height="51.616" transform="translate(215.126 282.994)"/><path class="ai" d="M542.528,649.737v-.4a.236.236,0,0,0-.029-.152,1.683,1.683,0,0,1-.059-.216c-.025-.069-.029-.093-.049-.143s-.059-.138-.089-.206l-.059-.123c-.039-.069-.084-.138-.128-.2l-.064-.093a3.271,3.271,0,0,0-.206-.256h0a4.726,4.726,0,0,0-1.372-1.013,3.956,3.956,0,0,0,.88-1.514,3.157,3.157,0,0,0,.118-.462v-.143a2.689,2.689,0,0,0,.025-.285v-.4a.236.236,0,0,0-.03-.152,1.682,1.682,0,0,1-.059-.216c-.025-.069-.03-.093-.049-.143s-.059-.138-.088-.206l-.059-.123c-.039-.069-.084-.138-.128-.2l-.064-.093a3.238,3.238,0,0,0-.206-.256h0a4.951,4.951,0,0,0-1.745-1.18s-3.121,1.155-3.328,2.424c-2.291.492-15.642,3.269-24.81,3.048l-.069-.182a8.155,8.155,0,0,0-4.341-7.212v-3.087a3.675,3.675,0,0,0,0-.393h0a3.661,3.661,0,0,0-.059-.374l.059-.034.251-.138.364-.221.231-.152q.256-.177.492-.374l.187-.162c.113-.1.221-.2.329-.3l.192-.187q.2-.206.383-.423l.133-.167q.172-.216.329-.442l.133-.2q.143-.221.275-.452l.083-.147c.108-.2.206-.4.295-.61l.074-.187q.1-.251.187-.492l.059-.182c.069-.226.128-.452.177-.683a.274.274,0,0,1,.025-.138q.054-.3.089-.595v-.2c0-.246.039-.492.039-.742a8.115,8.115,0,0,0-1.047-3.986c.526-.128.845-.232.806-.281-.2-.27-.4-.526-.615-.772l-.2-.231c-.147-.167-.29-.324-.437-.492l-.236-.241c-.147-.147-.295-.285-.442-.418l-.231-.206q-.28-.236-.56-.457l-.123-.1c-.226-.167-.452-.324-.683-.492l-.256-.157c-.147-.093-.3-.182-.452-.261l-.3-.157-.423-.2-.31-.138c-.147-.064-.3-.118-.452-.172l-.28-.1c-.226-.074-.452-.143-.678-.2l-.349-.079-.379-.079-.379-.059-.349-.039-.388-.034h-.723q-.32,0-.639.029h0c-5.029.413-9.433,4.8-9.433,11.8V636.8h7.865v2.625a8.156,8.156,0,0,0-4.739,7.4v22.372l-6.676,30.67h-.089l-1.312,5.855,9.419,1.524h0l.408.064c.983-.423-.664-2.4-1.406-3.933a4.2,4.2,0,0,1-.2-.492,3.721,3.721,0,0,1-.187-.954L501.6,678.19h-.034l.172-.556s9.212,3.933,11.582,11.842c1.922,6.391.728,10.549.206,11.9h-.034v.079c-.1.256-.177.4-.177.4h.177v4.341h9.959c.924-.467-1.037-1.829-2.015-2.949a2.788,2.788,0,0,1-.649-1.254h.167l.079-.354A34.18,34.18,0,0,0,510.781,669.3a.379.379,0,0,0,.044-.084,36.6,36.6,0,0,0,1.725-8.878c7.615.728,17.746.207,25.322-5.663a23.6,23.6,0,0,0,2.069-1.76c.654-.049,1.8-.413,2.433-2.261a3.161,3.161,0,0,0,.118-.462v-.143A2.7,2.7,0,0,0,542.528,649.737Z" transform="translate(-323.208 -361.257)"/><path class="i" d="M518.445,690.19s23.055,7.329,35.827-4.916l-2.709-3.544s-24.776,5.52-30.68,1.475S518.445,690.19,518.445,690.19Z" transform="translate(-339.022 -393.048)"/><path class="z" d="M554.312,688l.452.59c-12.781,12.25-35.827,4.916-35.827,4.916s-.059-.187-.147-.492C521.538,693.835,542.4,699.444,554.312,688Z" transform="translate(-339.711 -396.236)"/><path class="aj" d="M588.726,682.982s1.888.428,2.758-2.1-2.163-3.648-2.163-3.648-3.161,1.165-3.151,2.4S588.726,682.982,588.726,682.982Z" transform="translate(-373.969 -390.76)"/><path class="z" d="M588.976,683.727s1.888.428,2.758-2.1a2.375,2.375,0,0,0-.221-2.143,2.409,2.409,0,0,1,.521,2.536c-.87,2.537-2.758,2.1-2.758,2.1A13.441,13.441,0,0,1,587.25,682,14.667,14.667,0,0,0,588.976,683.727Z" transform="translate(-374.518 -391.904)"/><path class="i" d="M541.7,781.75h6.828a2.241,2.241,0,0,0,.644,1.755c.919,1.062,2.768,2.345,1.9,2.782H541.7Z" transform="translate(-351.359 -443.9)"/><path class="z" d="M555.217,783.5a2.241,2.241,0,0,1-.644-1.755h.492a2.241,2.241,0,0,0,.644,1.755c.919,1.062,2.768,2.345,1.9,2.782h-.492C557.984,785.85,556.136,784.572,555.217,783.5Z" transform="translate(-357.901 -443.9)"/><path class="i" d="M490.939,778.89l6.391,1.047a3.254,3.254,0,0,0,.29,2.251c.7,1.475,2.266,3.313,1.322,3.711l-9.252-1.475Z" transform="translate(-324.917 -442.446)"/><path class="z" d="M498.4,782.163a3.254,3.254,0,0,1-.29-2.251l-5.924-.983v-.079l6.391,1.047a3.254,3.254,0,0,0,.29,2.252c.7,1.475,2.266,3.313,1.322,3.711l-.388-.064C500.532,785.314,499.072,783.55,498.4,782.163Z" transform="translate(-326.188 -442.426)"/><rect class="aj" width="6.936" height="10.279" rx="3.468" transform="translate(183.734 283.677) rotate(180)"/><circle class="aj" cx="7.679" cy="7.679" r="7.679" transform="translate(172.462 261.635)"/><path class="z" d="M523.236,645.3v-3.343a3.444,3.444,0,0,0-.079-.728,7.678,7.678,0,0,0-3.077-14.5h.433a7.679,7.679,0,0,1,3.515,14.507,3.434,3.434,0,0,1,.079.728v3.343a3.441,3.441,0,0,1-3.9,3.441A3.481,3.481,0,0,0,523.236,645.3Z" transform="translate(-340.367 -365.085)"/><path class="i" d="M505.08,690.463s14.811,1.671,15.357,0a32.742,32.742,0,0,0,0-21.055,7.678,7.678,0,0,0-7.679-7.678h0a7.678,7.678,0,0,0-7.678,7.678Z" transform="translate(-332.741 -382.88)"/><path class="aa" d="M498.16,720.18,491.47,750.9h6.69l6.936-22.79s8.671,3.716,10.9,11.149,0,11.641,0,11.641h7.2l.074-.334a31.953,31.953,0,0,0-9.733-30.385h0" transform="translate(-325.822 -412.597)"/><path class="z" d="M527.131,690.478a32.743,32.743,0,0,0,0-21.055,7.679,7.679,0,0,0-7.183-7.664h.493a7.678,7.678,0,0,1,7.679,7.678,32.748,32.748,0,0,1,0,21.054c-.2.6-2.222.767-4.739.742C525.425,691.191,526.964,690.994,527.131,690.478Z" transform="translate(-340.3 -382.895)"/><g class="h" transform="translate(171.356 307.706)"><path class="d" d="M510.872,736.978l-6.808,22.372h-.983l6.936-22.79S510.336,736.7,510.872,736.978Z" transform="translate(-503.08 -728.631)"/><path class="d" d="M534.31,720.43h.983a31.953,31.953,0,0,1,9.733,30.385l-.074.334h-.983l.074-.334A31.953,31.953,0,0,0,534.31,720.43Z" transform="translate(-518.958 -720.43)"/></g><path class="i" d="M516.445,680.19s23.055,7.329,35.826-4.916l-2.709-3.544s-24.776,5.52-30.68,1.475S516.445,680.19,516.445,680.19Z" transform="translate(-338.005 -387.964)"/><path class="z" d="M552.312,678l.452.59c-12.781,12.25-35.827,4.916-35.827,4.916s-.059-.187-.147-.492C519.538,683.835,540.4,689.444,552.312,678Z" transform="translate(-338.695 -391.152)"/><path class="aj" d="M586.726,672.982s1.888.428,2.758-2.1-2.163-3.648-2.163-3.648-3.161,1.165-3.151,2.4S586.726,672.982,586.726,672.982Z" transform="translate(-372.952 -385.676)"/><path class="z" d="M586.976,673.727s1.888.428,2.758-2.1a2.374,2.374,0,0,0-.221-2.143,2.409,2.409,0,0,1,.521,2.536c-.87,2.537-2.758,2.1-2.758,2.1A13.43,13.43,0,0,1,585.25,672a14.661,14.661,0,0,0,1.725,1.725Z" transform="translate(-373.501 -386.82)"/><path class="aa" d="M510.426,630.654l-.492,10.323H499.12V635.5c0-11.006,11.636-15.185,18.189-6.341C517.471,629.4,510.426,630.654,510.426,630.654Z" transform="translate(-329.711 -363.886)"/><path class="z" d="M517.18,624.463a10.963,10.963,0,0,1,7.836,4.754c.162.216-6.882,1.475-6.882,1.475l-.492,10.323h1.475l.492-10.323s7.044-1.259,6.882-1.475C523.851,625.648,520.38,624.222,517.18,624.463Z" transform="translate(-338.893 -363.92)"/></svg>